<?xml version="1.0" ?>
<!-- Uploaded to: SVG Repo, www.svgrepo.com, Generator: SVG Repo Mixer Tools -->
<svg width="800px" height="800px" viewBox="0 0 64 64" version="1.1" xml:space="preserve" xmlns="http://www.w3.org/2000/svg" xmlns:xlink="http://www.w3.org/1999/xlink">
<style type="text/css">
	.st0{fill:none;stroke:#EDEDED;stroke-width:0.25;stroke-miterlimit:10;}
	.st1{fill:none;stroke:#BDBDBD;stroke-width:0.25;stroke-miterlimit:10;}
	.st2{fill:none;stroke:#000000;stroke-width:2;stroke-miterlimit:10;}
	.st3{fill:#35C6F4;}
	.st4{fill:#EA386E;}
	.st5{fill:#7065AD;}
	.st6{fill:#FDBE57;}
	.st7{fill:#7BC89C;}
	.st8{fill:#FDD304;}
	.st9{fill:#27255F;}
	.st10{fill:#00AEEF;}
</style>
<g id="Layer_1"/>
<g id="Layer_2">
<g>
<path d="M61.1,36V28l-7.6-0.8c-0.6-2.5-1.5-4.8-2.8-6.9l4.8-5.9l-5.7-5.7l-5.9,4.8c-2.1-1.3-4.4-2.3-6.9-2.9L36,2.9H28l-0.8,7.5    c-2.5,0.6-4.8,1.5-6.9,2.9l-5.9-4.8l-5.7,5.7l4.8,5.9c-1.3,2.1-2.3,4.4-2.8,6.9L2.9,28V36l7.6,0.8c0.6,2.5,1.5,4.8,2.9,6.9l-4.8,6    l5.7,5.7l6-4.8c2.1,1.3,4.4,2.3,6.8,2.8l0.8,7.7H36l0.8-7.7c2.5-0.6,4.8-1.5,6.8-2.8l6,4.8l5.7-5.7l-4.8-6    c1.3-2.1,2.3-4.4,2.9-6.9L61.1,36z M59.1,29.8v4.5l-5.2,0.6c0.1-0.9,0.2-1.9,0.2-2.9c0-0.9-0.1-1.8-0.2-2.7L59.1,29.8z M49.6,11.3    l3.2,3.2l-3.3,4.1c-1.1-1.5-2.5-2.8-3.9-4L49.6,11.3z M29.8,4.9h4.5l0.6,5.2C33.9,10,32.9,9.9,32,9.9c-0.9,0-1.9,0.1-2.8,0.2    L29.8,4.9z M11.3,14.4l3.2-3.2l4.1,3.3c-1.5,1.2-2.8,2.5-4,4L11.3,14.4z M4.9,34.2v-4.5l5.2-0.6C10.1,30.1,10,31,10,31.9    c0,1,0.1,1.9,0.2,2.9L4.9,34.2z M14.5,52.7l-3.2-3.2l3.3-4.1c1.2,1.5,2.5,2.8,4,4L14.5,52.7z M34.2,59.1h-4.5l-0.6-5.3    c0.9,0.1,1.9,0.2,2.8,0.2c1,0,1.9-0.1,2.8-0.2L34.2,59.1z M52.7,49.6l-3.2,3.2l-4.1-3.3c1.5-1.1,2.8-2.5,4-4L52.7,49.6z     M46.1,46.1c-3.6,3.6-8.6,5.9-14.1,5.9c-5.5,0-10.5-2.2-14.1-5.9c-3.6-3.6-5.9-8.6-5.9-14.1c0-5.5,2.2-10.5,5.9-14.1    c3.6-3.6,8.6-5.9,14.1-5.9c5.5,0,10.5,2.2,14.1,5.9c3.6,3.6,5.9,8.6,5.9,14.1C52,37.5,49.8,42.5,46.1,46.1z"/>
<path d="M32,13.9c-9.9,0-18,8.1-18,18c0,9.9,8.1,18,18,18c9.9,0,18-8.1,18-18C50,22,41.9,13.9,32,13.9z M25.8,46.7    c-0.5-0.2-1-0.5-1.5-0.7v-9.2h1.5V46.7z M31.3,47.9V33.1h1.5v14.8c-0.2,0-0.5,0-0.7,0C31.7,47.9,31.5,47.9,31.3,47.9z M39.8,45.9    c-0.5,0.3-1,0.5-1.5,0.7V29.4h1.5V45.9z M43.3,43.3c-0.5,0.5-1,0.9-1.6,1.4V27.4h-5.5v19.9c-0.5,0.1-1,0.2-1.5,0.3V31.1h-5.5v16.6    c-0.5-0.1-1-0.2-1.5-0.3V34.8h-5.5v9.8c-0.5-0.4-1.1-0.9-1.6-1.4c-2.9-2.9-4.7-6.9-4.7-11.3c0-4.4,1.8-8.4,4.7-11.3    c2.9-2.9,6.9-4.7,11.3-4.7c4.4,0,8.4,1.8,11.3,4.7c2.9,2.9,4.7,6.9,4.7,11.3C48,36.4,46.2,40.4,43.3,43.3z"/>
<rect height="2" transform="matrix(0.8575 -0.5145 0.5145 0.8575 -9.4569 19.2401)" width="20.4" x="19.8" y="25.7"/>
</g>
</g>
</svg>