<svg xmlns="http://www.w3.org/2000/svg" width="481.058" height="437.437" viewBox="0 0 481.058 437.437">
  <g id="Group_6" data-name="Group 6" transform="translate(-1153.774 -1115.563)">
    <path id="Path_81" data-name="Path 81" d="M1566.1,228.68a14.654,14.654,0,0,0-14.019,10.709h-20.444a3.894,3.894,0,1,0,0,7.788h20.444a14.579,14.579,0,1,0,14.019-18.5" transform="translate(54.13 964.763)" fill="#146ef5"/>
    <path id="Path_82" data-name="Path 82" d="M1494.475,109.816a3.844,3.844,0,0,0,2.726-1.168l14.408-14.408a14.462,14.462,0,0,0,17.523-2.337,14.594,14.594,0,1,0-22.975-3.115L1491.749,103.2a3.764,3.764,0,0,0,0,5.452,3.844,3.844,0,0,0,2.726,1.168" transform="translate(78.636 1071.361)" fill="#146ef5"/>
    <path id="Path_83" data-name="Path 83" d="M1379.516,28.619V49.063a3.894,3.894,0,0,0,7.788,0V28.619A14.6,14.6,0,0,0,1398.012,14.6a14.6,14.6,0,0,0-29.205,0,14.263,14.263,0,0,0,10.709,14.018" transform="translate(158.938 1115.565)" fill="#146ef5"/>
    <path id="Path_84" data-name="Path 84" d="M1228.916,94.239l14.408,14.408a3.765,3.765,0,0,0,5.452,0,3.764,3.764,0,0,0,0-5.452l-14.408-14.408a14.462,14.462,0,0,0-2.337-17.523A14.593,14.593,0,0,0,1211.393,91.9a14.532,14.532,0,0,0,17.523,2.336" transform="translate(265.536 1071.362)" fill="#146ef5"/>
    <path id="Path_85" data-name="Path 85" d="M1168.746,247.177h20.443a3.894,3.894,0,1,0,0-7.788h-20.443a14.579,14.579,0,1,0-14.019,18.5,14.264,14.264,0,0,0,14.019-10.709" transform="translate(309.74 964.763)" fill="#146ef5"/>
    <path id="Path_86" data-name="Path 86" d="M1243.9,351.622l-14.408,14.408a14.462,14.462,0,0,0-17.523,2.337,14.594,14.594,0,1,0,22.975,3.115l14.408-14.408a3.855,3.855,0,1,0-5.452-5.452" transform="translate(265.159 884.461)" fill="#146ef5"/>
    <path id="Path_87" data-name="Path 87" d="M1387.3,411.952V391.509a3.894,3.894,0,0,0-7.788,0v20.444a14.579,14.579,0,1,0,18.5,14.018,14.264,14.264,0,0,0-10.708-14.018" transform="translate(158.938 859.955)" fill="#146ef5"/>
    <path id="Path_88" data-name="Path 88" d="M1511.608,366.03,1497.2,351.622a3.855,3.855,0,1,0-5.452,5.452l14.408,14.408A14.462,14.462,0,0,0,1508.493,389a14.593,14.593,0,1,0,20.638-20.638,14.532,14.532,0,0,0-17.523-2.336" transform="translate(78.636 884.461)" fill="#146ef5"/>
    <path id="Path_89" data-name="Path 89" d="M1349.857,177.8a31.931,31.931,0,1,0,31.931,31.931,31.949,31.949,0,0,0-31.931-31.931m12.85,34.072-11.682,11.682a1.528,1.528,0,0,1-2.142,0L1337.4,212.066a8.009,8.009,0,0,1-1.168-10.125,7.743,7.743,0,0,1,12.072-1.168l1.752,1.752,1.558-1.558a8.009,8.009,0,0,1,10.124-1.168,8.13,8.13,0,0,1,.974,12.072" transform="translate(192.491 998.316)" fill="#146ef5"/>
    <path id="Path_19" data-name="Path 19" d="M459.252,640.439a2.107,2.107,0,0,1-2.062-1.688L454,623.02c-.407-2-.868-4.269-2.107-5.781a13.6,13.6,0,0,0-4.112-2.932l-.3-.161c-19.107-10.535-36.287-33.572-46-51.6a2.108,2.108,0,0,1,3.712-2c9.422,17.5,26.012,39.806,44.318,49.909l.288.158a17.144,17.144,0,0,1,5.359,3.979c1.872,2.314,2.458,5.239,2.943,7.594l3.189,15.731a2.1,2.1,0,0,1-1.647,2.482,1.848,1.848,0,0,1-.393.042" transform="translate(865.821 720.802)"/>
    <path id="Path_20" data-name="Path 20" d="M370.9,847.133c.562,6.194-.376,9.593-.446,15.7,4.4-1.248,10.226.615,14.816.178q.787-14.894,1.566-29.788a408.837,408.837,0,0,0-131.115,29.091l1.085,4.469,1.942,8.021C307.74,854.008,361.642,846.69,370.9,847.133" transform="translate(970.25 524.314)" fill="#146ef5"/>
    <path id="Path_21" data-name="Path 21" d="M253.388,871.547a2.073,2.073,0,0,1-.945-.226,2.126,2.126,0,0,1-.7-.57,2.092,2.092,0,0,1-.4-.81l-3.038-12.49a2.106,2.106,0,0,1,1.257-2.459,409.187,409.187,0,0,1,131.792-29.241,2.063,2.063,0,0,1,.866.135,2.084,2.084,0,0,1,.735.474,2.1,2.1,0,0,1,.615,1.6l-1.566,29.791a2.109,2.109,0,0,1-1.9,1.988,34.9,34.9,0,0,1-6.7-.271c-2.746-.288-5.587-.587-7.726.025a2.087,2.087,0,0,1-.97.042,2.1,2.1,0,0,1-1.5-1.146,2.109,2.109,0,0,1-.213-.949c.028-2.428.186-4.41.351-6.321a54.635,54.635,0,0,0,.246-7.25c-13.422.373-64.016,8.264-109.352,27.507a2.109,2.109,0,0,1-.853.169m-.558-13.32,2.019,8.315C302.706,846.7,355.832,839.2,365.626,839.664a2.1,2.1,0,0,1,2,1.914,53.737,53.737,0,0,1-.109,9.879c-.091,1.126-.183,2.276-.246,3.512a37.787,37.787,0,0,1,6.564.3c1.4.15,2.809.291,4.063.322l1.341-25.511a404.875,404.875,0,0,0-126.4,28.142Z" transform="translate(975.611 529.677)" fill="#146ef5"/>
    <path id="Path_22" data-name="Path 22" d="M680.462,995.5a2.24,2.24,0,0,1-.513-.062,2.127,2.127,0,0,1-1.3-.96,2.131,2.131,0,0,1-.278-.776,2.1,2.1,0,0,1,.04-.822l14.5-58.035h-1.633c-11.589-.034-23.346.418-34.928,1.344a2.122,2.122,0,0,1-1.541-.491,2.117,2.117,0,0,1-.248-2.981,2.16,2.16,0,0,1,.646-.514,2.1,2.1,0,0,1,.793-.226c11.7-.937,23.564-1.406,35.276-1.361q2.17,0,4.341.037a2.107,2.107,0,0,1,2.019,2.62L682.5,993.9a2.109,2.109,0,0,1-2.04,1.6" transform="translate(684.368 454.42)" fill="#146ef5"/>
    <path id="Path_23" data-name="Path 23" d="M347.841,954.53h-.077a2.11,2.11,0,0,1-2.03-2.182c.442-12.5.632-25.661.815-38.382.169-11.894.351-24.164.727-35.954a523.263,523.263,0,0,0-116.481,30.471c.351,1.078.836,2.521,1.4,4.263.755,2.29,1.531,4.653,1.756,5.217a2.107,2.107,0,0,1-3.94,1.493c-.246-.649-.969-2.849-1.809-5.4s-1.78-5.415-2.023-6.036a2.106,2.106,0,0,1,1.191-2.727,527.188,527.188,0,0,1,121.816-31.8,2.142,2.142,0,0,1,.907.076,2.107,2.107,0,0,1,1.484,2.084c-.442,12.507-.632,25.638-.815,38.371s-.351,25.92-.815,38.47a2.108,2.108,0,0,1-2.111,2.036" transform="translate(991.552 495.423)" fill="#146ef5"/>
    <path id="Path_24" data-name="Path 24" d="M213.9,979.069q.853,1.757,1.679,3.554c4.4,9.514,11.61,26.844,18.672,44.817,49.354-16.174,93.237-15.977,93.237-15.957.046-11.75-.85-32.307-1.756-45.432-4.565-3.636-9.51-6.7-14.226-10.4-23.178,4.147-71.77,14.413-97.606,23.419" transform="translate(1000.263 436.449)" fill="#146ef5"/>
    <path id="Path_25" data-name="Path 25" d="M228.928,1024.19a2.1,2.1,0,0,1-1.963-1.338c-7.132-18.156-14.268-35.282-18.612-44.7-.544-1.172-1.1-2.36-1.661-3.512a2.1,2.1,0,0,1,.452-2.445,2.048,2.048,0,0,1,.753-.457c25.7-8.967,73.7-19.187,97.929-23.509a2.15,2.15,0,0,1,.88.028,2.127,2.127,0,0,1,.791.387c2.234,1.756,4.565,3.4,6.848,4.994,2.458,1.719,4.993,3.512,7.375,5.421a2.118,2.118,0,0,1,.551.669,2.089,2.089,0,0,1,.236.83c.9,13.145,1.794,33.789,1.756,45.587h-2.107l-.067,2.106c-.414,0-43.676-.152-92.514,15.853a2.086,2.086,0,0,1-.646.088M211.5,974.95l.671,1.44c4.239,9.164,11.08,25.548,17.994,43.086a340.356,340.356,0,0,1,63.636-13.529c8.927-1.025,16.154-1.5,20.624-1.705,2.588-.124,4.379-.195,5.636-.217-.056-11.64-.86-29.924-1.675-42.247-2.072-1.615-4.214-3.114-6.458-4.692-2.065-1.446-4.193-2.942-6.283-4.543-23.673,4.272-68.535,13.828-94.146,22.408" transform="translate(1005.587 441.8)" fill="#146ef5"/>
    <path id="Path_26" data-name="Path 26" d="M25.87,872.611c-4.969,0-10.405-2.984-11.027-8.077a13.12,13.12,0,0,1,.151-3.427,13.746,13.746,0,0,0,.172-1.8c0-2.106-1.085-4.193-2.248-6.406l-.242-.46c-11.03-21.07-14.89-47.112-11.47-77.349A216.823,216.823,0,0,1,74.469,636.579c5.552-4.772,11.687-9.453,18.964-11.371a2.107,2.107,0,1,1,1.075,4.074c-6.437,1.7-12.105,6.047-17.274,10.493A212.6,212.6,0,0,0,5.393,775.581c-3.322,29.387.383,54.593,11.02,74.918l.235.457c1.289,2.459,2.753,5.234,2.732,8.391a17.448,17.448,0,0,1-.211,2.341,9.514,9.514,0,0,0-.141,2.346c.33,2.716,3.779,4.362,6.834,4.362h.123a29.075,29.075,0,0,0,6.374-1.084,43.725,43.725,0,0,1,5.25-1.053,44.032,44.032,0,0,1,11.754.649l1.861.265a120.575,120.575,0,0,0,35.188-.3,2.121,2.121,0,0,1,.822.034,2.119,2.119,0,0,1,1.3.951,2.106,2.106,0,0,1-.7,2.9,2.158,2.158,0,0,1-.772.285,124.769,124.769,0,0,1-36.42.308l-1.893-.271c-3.7-.539-7.192-1.053-10.634-.632a40.022,40.022,0,0,0-4.751.974,32.55,32.55,0,0,1-7.319,1.208Z" transform="translate(1153.774 673.658)"/>
    <path id="Path_27" data-name="Path 27" d="M371.557,622.328a2.114,2.114,0,0,1-1.45-.576c-7.076-6.708-11.757-15.254-16.322-24.148-6.8-13.257-13.264-26.9-19.22-40.55a7.052,7.052,0,0,1-.78-3.695,7.141,7.141,0,0,1,1.861-3.621c.78-.938,1.545-1.893,2.353-2.9,4.565-5.693,9.268-11.589,16.3-13.819a2.107,2.107,0,0,1,1.282,4.014c-5.819,1.858-10.124,7.238-14.289,12.439-.787.98-1.6,1.995-2.4,2.964a4.091,4.091,0,0,0-.92,1.429,3.87,3.87,0,0,0,.46,1.5c5.921,13.569,12.351,27.132,19.107,40.311,3.947,7.7,7.972,15.1,13.538,21.07,5.008-8.021,15.8-16.781,24.694-19.711,4.063-1.338,7.375-1.335,9.875,0a2.108,2.108,0,1,1-2,3.711c-1.4-.751-3.722-.649-6.556.285-8.625,2.84-20.1,12.6-23.623,20.085a2.116,2.116,0,0,1-1.907,1.211Z" transform="translate(914.251 739.826)"/>
    <path id="Path_28" data-name="Path 28" d="M538.773,801.2a2.106,2.106,0,0,1-.906-4.009l7.224-3.436a2.115,2.115,0,0,1,1.611-.082,2.1,2.1,0,0,1,1.2,1.081,2.108,2.108,0,0,1-.34,2.318,2.186,2.186,0,0,1-.659.491l-7.224,3.433a2.122,2.122,0,0,1-.9.2" transform="translate(768.625 552.784)"/>
    <path id="Path_29" data-name="Path 29" d="M693.234,718.4a2.105,2.105,0,0,1-1.946-1.3c-2.184-5.268-8.407-11.985-13.464-13.134a4.237,4.237,0,0,0-4.021.85,2.107,2.107,0,0,1-2.809-3.139,8.375,8.375,0,0,1,7.764-1.819c3.912.888,8.077,4.024,11.34,7.759-1.545-8.858-4.635-19.232-8.3-25.233a2.108,2.108,0,0,1,3.6-2.195c5.4,8.86,9.482,25.774,9.938,36.013a2.107,2.107,0,0,1-1.647,2.146,1.911,1.911,0,0,1-.457.048" transform="translate(672.698 634.864)"/>
    <path id="Path_30" data-name="Path 30" d="M812.522,832.77a2.1,2.1,0,0,1-2.036-1.578c-2.374-9.13-7.5-17.047-12.927-25.412-4.8-7.4-9.759-15.042-12.6-23.6-.611-1.838-1.124-3.718-1.615-5.534a50.968,50.968,0,0,0-3.424-9.89,24.346,24.346,0,0,0-11.353-10.933,2.108,2.108,0,1,1,1.78-3.821,28.589,28.589,0,0,1,13.324,12.836,54.533,54.533,0,0,1,3.737,10.7c.481,1.756.976,3.58,1.552,5.313,2.672,8.043,7.483,15.452,12.133,22.631,5.374,8.278,10.924,16.858,13.471,26.649a2.107,2.107,0,0,1-2.041,2.637" transform="translate(603.068 582.743)"/>
    <path id="Path_31" data-name="Path 31" d="M179.523,1223.444a2.107,2.107,0,0,1-1.672-3.385c6.813-8.927,24.751-16.431,36.589-17.583a2.116,2.116,0,1,1,.407,4.212c-10.728,1.053-27.764,8.233-33.646,15.943a2.065,2.065,0,0,1-.745.6,2.1,2.1,0,0,1-.934.212" transform="translate(1026.445 259.316)"/>
    <path id="Path_32" data-name="Path 32" d="M234.155,1223.451a2.174,2.174,0,0,1-.723-.124,2.11,2.11,0,0,1-1.257-2.7c2.7-7.428,13.2-15.1,19.448-17.97a2.107,2.107,0,1,1,1.756,3.831c-5.819,2.662-15.048,9.557-17.243,15.579a2.108,2.108,0,0,1-1.98,1.386" transform="translate(987.241 259.318)"/>
    <path id="Path_33" data-name="Path 33" d="M95.411,1427.98a10.825,10.825,0,0,1-5.97-1.855,10.344,10.344,0,0,1-4.7-7.609,2.114,2.114,0,0,1,4.214-.353,6.535,6.535,0,0,0,8.014,5.35,2.107,2.107,0,0,1,1.306,4.006,9.339,9.339,0,0,1-2.869.46" transform="translate(1092.96 105.907)"/>
    <path id="Path_34" data-name="Path 34" d="M408.587,443.921a2.107,2.107,0,0,1-1.693-3.361c2.535-3.435,4.98-7.023,7.262-10.62,1.893-3,3.887-6.813,2.518-9.755-.752-1.615-2.458-2.771-4.256-3.989a18.46,18.46,0,0,1-4.917-4.27c-3.452-4.744-2.03-12.316,3.048-16.2,4.214-3.217,10.276-4,16.235-2.107,5.317,1.7,9.713,5.1,13.418,8.144a2.107,2.107,0,0,1-2.676,3.255c-3.4-2.809-7.42-5.91-12.028-7.375s-9.327-.916-12.389,1.426c-2.957,2.261-4.527,7.178-2.2,10.374a15.422,15.422,0,0,0,3.863,3.259c2.107,1.4,4.471,3.027,5.714,5.7,2.23,4.79-.312,9.882-2.774,13.783-2.339,3.7-4.839,7.375-7.438,10.887a2.107,2.107,0,0,1-1.686.846" transform="translate(862.679 840.533)"/>
    <path id="Path_35" data-name="Path 35" d="M439.3,426.885a2.11,2.11,0,0,1-1.985-1.406,2.107,2.107,0,0,1,.085-1.611,8.993,8.993,0,0,1,11.94-3.947,2.107,2.107,0,0,1-1.97,3.726,4.783,4.783,0,0,0-6.181,2.04,2.107,2.107,0,0,1-1.889,1.2" transform="translate(840.012 821.585)"/>
    <path id="Path_36" data-name="Path 36" d="M517.862,249.749c2.658-3.182,5.851-6.321,9.938-7.023a36.06,36.06,0,0,0,3.8-.52,13.809,13.809,0,0,0,4.565-2.753,85.914,85.914,0,0,1,47.605-17.935c1.644-.095,3.512-.046,4.611,1.194,1.521,1.756.379,4.5-1.152,6.24s-3.512,3.407-3.7,5.717a68.861,68.861,0,0,1,35.117.351c2.939.811,6.493,2.964,5.683,5.9a6.074,6.074,0,0,1-2.38,2.879,150.169,150.169,0,0,1-17.4,11.768c3.161-1.313,9.324-.948,9.774,1.159.672,3.16-6.561,6.114-10.7,7.747,6.458-.39,18.319,2.458,17.141,7.477-1.206,5.138-27,9.77-27.912,9.317,0,0-8.281-17.32-9.369-17.622a5.074,5.074,0,0,0-3.466.79c-7.375,3.659-19.125,10.669-25.369,5.268-9.44-8.144-22.991-8.144-27.609,6.729-1.11,3.575-.228,18.061-10.261,16.737-2.665-.351-3.34-12.014-12.154-16.3-1.4-2.058-.2-4.892.671-6.911a79.942,79.942,0,0,1,5.067-9.728,85.044,85.044,0,0,1,7.5-10.486" transform="translate(792.083 963.339)"/>
    <path id="Path_37" data-name="Path 37" d="M512.724,290.026a12.132,12.132,0,0,1-1.531-.1c-2.2-.291-3.16-2.567-4.358-5.45-1.538-3.677-3.645-8.709-8.428-11.041a2.107,2.107,0,0,1-.818-.7c-2.072-3.02-.477-6.722.474-8.934a80.967,80.967,0,0,1,5.18-9.991,87.717,87.717,0,0,1,7.691-10.763c2.809-3.375,6.353-6.936,11.206-7.747.576-.1,1.131-.147,1.664-.2a11.048,11.048,0,0,0,1.921-.277,11.444,11.444,0,0,0,3.571-2.188l.253-.2A88.2,88.2,0,0,1,578.33,214.06c1.324-.077,4.425-.256,6.321,1.914,2.318,2.658,1.025,6.539-1.159,9.018-.288.327-.59.65-.9.976l-.27.291a70.738,70.738,0,0,1,31.579,1.384c4.387,1.212,8.3,4.309,7.151,8.492a8.012,8.012,0,0,1-3.111,3.979c-3.43,2.69-7,5.246-10.668,7.641a7.706,7.706,0,0,1,1.676.618,3.712,3.712,0,0,1,2.106,2.567c.587,2.746-1.53,4.916-4.674,6.781,4,.832,7.927,2.377,9.886,4.7a5.189,5.189,0,0,1,1.222,4.664c-.426,1.8-2.109,3.34-5.308,4.843-4.565,2.139-11.3,3.785-14.924,4.565-2.3.5-4.6.941-6.479,1.229-3,.464-3.582.379-4.193.074a2.108,2.108,0,0,1-.962-.976c-3.259-6.816-7.094-14.377-8.474-16.481a8.092,8.092,0,0,0-1.528.629c-.769.383-1.591.8-2.458,1.24-7.838,4.007-18.57,9.482-25.232,3.747-4.822-4.158-10.5-5.833-15.2-4.488-4.189,1.2-7.308,4.745-9.018,10.247a22.906,22.906,0,0,0-.464,2.974c-.506,4.186-1.268,10.507-5.236,13.584a8.43,8.43,0,0,1-5.292,1.752m-.622-4.242a4.581,4.581,0,0,0,3.357-.832c2.574-2,3.213-7.269,3.631-10.76a23.225,23.225,0,0,1,.625-3.719c2.718-8.751,7.961-11.94,11.88-13.05,6.072-1.738,13.218.263,19.118,5.348,4.512,3.894,13.791-.846,20.561-4.309.874-.446,1.71-.875,2.5-1.264,1.19-.587,2.988-1.479,4.962-.931,1.054.292,1.58.436,6.412,10.005,1.482,2.932,2.915,5.872,3.695,7.484a108.728,108.728,0,0,0,12.379-2.536c11.139-2.936,12.175-5.113,12.183-5.134.028-.123.1-.418-.353-.952-2.067-2.458-9.765-4.214-14.622-3.905a2.107,2.107,0,0,1-.9-4.063,54.735,54.735,0,0,0,6.4-2.887,8.128,8.128,0,0,0,2.911-2.265,11.148,11.148,0,0,0-6.792.155,2.107,2.107,0,0,1-1.861-3.772,148.486,148.486,0,0,0,17.157-11.606,4.634,4.634,0,0,0,1.649-1.777c.328-1.2-1.914-2.68-4.215-3.315a66.549,66.549,0,0,0-34.063-.351,2.107,2.107,0,0,1-2.62-2.205c.2-2.63,1.907-4.453,3.406-6.058.278-.3.555-.59.815-.885,1.008-1.148,1.71-2.809,1.141-3.462s-2.251-.516-2.9-.478a83.934,83.934,0,0,0-46.425,17.492l-.246.193a11.58,11.58,0,0,1-7.719,3.347c-.478.042-.927.081-1.345.151-3.494.586-6.342,3.512-8.667,6.293a83.178,83.178,0,0,0-7.315,10.247,76.756,76.756,0,0,0-4.917,9.482c-.579,1.349-1.429,3.319-1.053,4.513,5.773,3.122,8.217,8.966,9.854,12.877a21.32,21.32,0,0,0,1.38,2.929" transform="translate(797.396 968.698)"/>
    <path id="Path_38" data-name="Path 38" d="M558.374,324.609a2.107,2.107,0,0,1-1.851-3.112,35.64,35.64,0,0,1,9.984-11.515,2.108,2.108,0,0,1,2.507,3.389,31.44,31.44,0,0,0-8.779,10.149,2.107,2.107,0,0,1-1.861,1.089" transform="translate(754.555 900.125)" fill="#fff"/>
    <path id="Path_39" data-name="Path 39" d="M722.074,308.78a2.107,2.107,0,0,1-1.774-3.245c6.451-10.061,18.138-14.142,30.552-17.755a2.107,2.107,0,0,1,1.18,4.046c-11.624,3.382-22.528,7.15-28.189,15.985a2.107,2.107,0,0,1-1.77.969" transform="translate(637.073 915.823)" fill="#fff"/>
    <path id="Path_40" data-name="Path 40" d="M762.753,333.654a2.107,2.107,0,0,1-1.447-3.642,28.17,28.17,0,0,1,9.622-5.938,2.107,2.107,0,1,1,1.44,3.958,23.953,23.953,0,0,0-8.168,5.047,2.109,2.109,0,0,1-1.447.576" transform="translate(607.881 889.825)" fill="#fff"/>
    <path id="Path_41" data-name="Path 41" d="M644.658,538.568a2.043,2.043,0,0,1-.734-.135,2.108,2.108,0,0,1-1.371-1.9,2.114,2.114,0,0,1,.132-.813c10.261-27.539,26.176-50.748,48.655-70.937,12.758-11.469,12.186-19.575,10.679-23.378s-4.916-6.075-7.28-6.075h-.077a2.106,2.106,0,0,1-1.924-1.254l-2.357-5.327a2.112,2.112,0,0,1,3.863-1.707l1.854,4.2a13.718,13.718,0,0,1,9.857,8.632c1.886,4.818,2.859,14.872-11.789,28.038-21.97,19.732-37.516,42.4-47.532,69.283a2.112,2.112,0,0,1-1.977,1.375" transform="translate(692.632 816.719)"/>
    <path id="Path_42" data-name="Path 42" d="M685.637,533.254a2.079,2.079,0,0,1-.966-.239,15,15,0,0,1-7.691-10.4,2.108,2.108,0,0,1,4.147-.755,10.686,10.686,0,0,0,5.482,7.417,2.107,2.107,0,0,1-.973,3.979" transform="translate(667.948 749.012)"/>
    <path id="Path_43" data-name="Path 43" d="M311.4,1293.7c-12.358,0-20.944-7.352-22.342-9.15a14.848,14.848,0,0,1-2.483-6.671c-.376-2.041-.776-4.1-1.169-6.143-4.534-23.6-8.815-45.889,1.31-68.015a2.118,2.118,0,0,1,.482-.666,2.1,2.1,0,0,1,1.512-.562,2.107,2.107,0,0,1,1.837,2.984c-9.562,20.881-5.4,42.541-1.015,65.455.393,2.047.79,4.1,1.176,6.163s.744,3.684,1.665,4.87c1.1,1.406,8.47,7.518,19,7.524a27.824,27.824,0,0,0,6.62-.807,2.107,2.107,0,1,1,1,4.094,31.834,31.834,0,0,1-7.589.926" transform="translate(952.462 259.296)"/>
    <path id="Path_44" data-name="Path 44" d="M403.43,1256.492a2.107,2.107,0,0,1-.745-4.08c16.972-6.392,74.849-22.278,82.343-22.984a81.947,81.947,0,0,1,13.3.2c6.865.474,13.345.926,19.343-1.318,2.075-.779,4.874-2.236,6.4-4.757,1.3-2.157,1.306-4.915,0-6.567a2.106,2.106,0,0,1,.832-3.241,10.608,10.608,0,0,0,2.5-16.779,2.11,2.11,0,0,1,1.215-3.721,3.786,3.786,0,0,0,2.809-1.846,6.283,6.283,0,0,0,.65-5.359c-1.4-3.7-5.45-5.765-8.6-6.844-8.144-2.789-17.436-2.247-25.636-1.756a2.111,2.111,0,0,1-.246-4.215c8.583-.5,18.31-1.053,27.241,2,4,1.369,9.19,4.1,11.174,9.334a10.406,10.406,0,0,1-1.053,9.13,8.654,8.654,0,0,1-2.557,2.612,14.563,14.563,0,0,1,2.107,10.308,14.328,14.328,0,0,1-5.917,9.91,10.624,10.624,0,0,1-.927,9.224,16.436,16.436,0,0,1-8.526,6.527c-6.848,2.564-14.1,2.061-21.113,1.573a78.646,78.646,0,0,0-12.618-.206c-6.395.6-63.794,16.155-81.251,22.73a2,2,0,0,1-.727.13" transform="translate(865.76 280.582)"/>
    <path id="Path_45" data-name="Path 45" d="M811.47,1245.454a2.3,2.3,0,0,1-.313-.023l-14.932-2.219a2.108,2.108,0,0,1,.621-4.17l14.929,2.219a2.107,2.107,0,0,1-.305,4.193" transform="translate(583.633 233.083)"/>
    <path id="Path_46" data-name="Path 46" d="M800.244,1312.992a2.071,2.071,0,0,1-.864-.189,24.632,24.632,0,0,0-13.152-2.151,2.166,2.166,0,0,1-.82-.065,2.115,2.115,0,0,1-1.266-1,2.106,2.106,0,0,1-.188-1.6,2.108,2.108,0,0,1,1-1.265,2.075,2.075,0,0,1,.782-.254,28.755,28.755,0,0,1,15.375,2.5,2.106,2.106,0,0,1-.868,4.026" transform="translate(591.207 184.81)"/>
    <path id="Path_47" data-name="Path 47" d="M299.124,1165.546a2.107,2.107,0,0,1-.566-4.136,454.668,454.668,0,0,1,65.617-13.419,329.536,329.536,0,0,1,66.846-1.934c3.311.265,7.929,1.623,10.047,4.565a5.827,5.827,0,0,1,.938,4.961,2.109,2.109,0,1,1-4.084-1.053,1.616,1.616,0,0,0,.039-.768,1.636,1.636,0,0,0-.32-.7c-1-1.4-3.926-2.589-6.953-2.829-38.98-3.117-84.282,2.14-130.988,15.2a2.013,2.013,0,0,1-.576.113" transform="translate(940.614 300.444)"/>
    <path id="Path_48" data-name="Path 48" d="M281.222,754.463a2.11,2.11,0,0,1-1.91-1.217,45.084,45.084,0,0,0-22.124-21.726,2.115,2.115,0,1,1,1.724-3.863,49.4,49.4,0,0,1,24.22,23.81,2.106,2.106,0,0,1-1.907,3Z" transform="translate(970.097 600.206)"/>
    <path id="Path_49" data-name="Path 49" d="M356.779,847.612a2.1,2.1,0,0,1-1.91-1.214l-1.693-3.611a2.108,2.108,0,0,1,3.814-1.8l1.7,3.622a2.106,2.106,0,0,1-1.907,3" transform="translate(900.454 519.606)"/>
    <path id="Path_50" data-name="Path 50" d="M948.584,704.495a2.107,2.107,0,0,1-2.1-1.942,2.08,2.08,0,0,1,.175-1.022c7.6-17.106,14.475-34.768,20.438-52.53,2.493-7.422,4.735-14.7,4.743-22.085,0-6.363-1.612-12.5-3.323-19-.579-2.205-1.18-4.488-1.7-6.753a31.753,31.753,0,0,1-.587-12.562c.884-4.878,3.329-8.365,7.069-10.089a12.876,12.876,0,0,1,11.51.263c2.408,1.359,5.424,4.214,6.1,10.184a2.11,2.11,0,0,1-.421,1.582,2.105,2.105,0,0,1-3.526-.307,2.052,2.052,0,0,1-.237-.8c-.375-3.318-1.756-5.735-3.984-6.992a8.533,8.533,0,0,0-7.676-.105c-5.508,2.539-5.748,10.886-4.139,17.878.508,2.2,1.1,4.449,1.674,6.623,1.7,6.472,3.461,13.162,3.458,20.07,0,8.023-2.349,15.66-4.958,23.43-6.005,17.874-12.928,35.669-20.587,52.9a2.108,2.108,0,0,1-.776.915,2.144,2.144,0,0,1-1.146.342" transform="translate(474.513 707.989)"/>
    <path id="Path_51" data-name="Path 51" d="M1087.286,588.528a1.862,1.862,0,0,1-.308-.025,2.106,2.106,0,0,1-1.781-2.388,132.12,132.12,0,0,0,.745-32.213c-.57-5.7-1.347-13.5,3.778-18.17,3.766-3.427,9.977-3.779,14.455-.822a15.879,15.879,0,0,1,7.558,14.18,2.108,2.108,0,0,1-4.215,0,11.794,11.794,0,0,0-5.669-10.658,7.878,7.878,0,0,0-9.291.422c-3.557,3.241-2.928,9.559-2.422,14.637a136.45,136.45,0,0,1-.765,33.242,2.108,2.108,0,0,1-2.084,1.794" transform="translate(374.973 739.841)"/>
    <path id="Path_52" data-name="Path 52" d="M1121.1,708.808a1.9,1.9,0,0,1-.4-.037,2.11,2.11,0,0,1-1.674-2.459l10.006-52.165c.68-3.549,1.451-7.572,3.546-11.05a32.582,32.582,0,0,1,5.782-6.626c1-.954,1.945-1.858,2.809-2.809,3.7-4.034,6.172-8.941,8.777-14.133a76.763,76.763,0,0,1,7.727-13.076c1.008-1.278,2.106-2.5,3.159-3.673,2.247-2.521,4.373-4.917,5.644-7.726,1.629-3.628,1.135-8.779-2.177-10.349-3.427-1.633-7.846,1.377-9.975,5.1a41.1,41.1,0,0,0-2.688,6.276,39.17,39.17,0,0,1-3.614,7.94,2.109,2.109,0,0,1-3.865-1.4,247.6,247.6,0,0,1,4.715-26.166c.378-1.612.906-3.276,1.4-4.888,1.285-4.084,2.617-8.305,1.7-11.831a7.823,7.823,0,0,0-4.729-5.457,9.074,9.074,0,0,0-7.775.351c-3.4,2-3.786,7.122-3.9,12.642a101.26,101.26,0,0,1-6.4,33.478,2.121,2.121,0,0,1-1.1,1.2,2.112,2.112,0,0,1-2.329-.375,2.089,2.089,0,0,1-.48-.675,2.049,2.049,0,0,1-.183-.808,2.071,2.071,0,0,1,.141-.816,97.072,97.072,0,0,0,6.132-32.087c.1-5.117.257-12.842,5.968-16.2a13.2,13.2,0,0,1,11.522-.621,12.056,12.056,0,0,1,7.185,8.291c1.222,4.7-.291,9.506-1.756,14.16-.508,1.608-.985,3.129-1.33,4.59q-1.177,4.973-2.146,10.026c3.185-5.338,9.689-9.208,15.282-6.542s6.674,10.36,4.215,15.88c-1.539,3.42-3.984,6.159-6.347,8.807-1.053,1.183-2.05,2.3-2.973,3.473a71.947,71.947,0,0,0-7.267,12.361c-2.625,5.226-5.344,10.627-9.449,15.1-.974,1.053-2.013,2.05-3.021,3.012a28.952,28.952,0,0,0-5.076,5.754c-1.708,2.832-2.374,6.318-3.018,9.667l-9.986,52.157a2.111,2.111,0,0,1-2.069,1.708" transform="translate(350.701 728.051)"/>
    <path id="Path_53" data-name="Path 53" d="M975.728,1098.845a15.083,15.083,0,0,1-4.788-.98,119.014,119.014,0,0,1-30.757-15.98,106.176,106.176,0,0,1-24.735-24.209,2.09,2.09,0,0,1-.333-.751,2.1,2.1,0,0,1,.836-2.185,2.1,2.1,0,0,1,.751-.336,2.066,2.066,0,0,1,.822-.023,2.1,2.1,0,0,1,1.364.858c11.683,16.462,32.643,31.626,53.379,38.628a8.513,8.513,0,0,0,4.28.672,6.724,6.724,0,0,0,3.072-2.033c4.608-4.588,6.57-12.53,6.471-18.368a2.087,2.087,0,0,1,.59-1.5,2.073,2.073,0,0,1,.675-.469,2.137,2.137,0,0,1,.8-.175,2.107,2.107,0,0,1,1.5.59,2.136,2.136,0,0,1,.471.678,2.065,2.065,0,0,1,.172.8c.141,8.216-2.885,16.626-7.724,21.423a10.9,10.9,0,0,1-5.107,3.159,7.847,7.847,0,0,1-1.742.2" transform="translate(497.059 365.614)"/>
    <path id="Path_54" data-name="Path 54" d="M863.688,1260.354a105.314,105.314,0,0,1-48.462-11.4,2.107,2.107,0,0,1-1.021-2.846,2.109,2.109,0,0,1,2.072-1.172,2.113,2.113,0,0,1,.8.237,101.851,101.851,0,0,0,50.018,10.918c4.125-.11,6.558-1,7.445-2.719a8.831,8.831,0,0,0,.646-2.809c.059-.488.124-1,.217-1.516.906-5.068,4.122-8.984,7.236-12.772.446-.542.887-1.081,1.324-1.623,9.591-11.939,17.682-22.868,19.585-35.632a2.115,2.115,0,0,1,.81-1.437,2.1,2.1,0,0,1,2.386-.127,2.1,2.1,0,0,1,.957,1.344,2.111,2.111,0,0,1,.014.841c-2.055,13.809-10.483,25.22-20.463,37.648-.446.556-.9,1.107-1.358,1.663-2.9,3.512-5.618,6.855-6.344,10.841-.073.406-.127.841-.186,1.3a12.158,12.158,0,0,1-1.078,4.212c-2.459,4.771-8.944,4.946-11.078,5q-1.779.047-3.523.045" transform="translate(569.596 263.134)"/>
    <path id="Path_55" data-name="Path 55" d="M848.256,1076.3a2.107,2.107,0,0,1-1.914-2.984,34.754,34.754,0,0,1,21.867-18.746,2.089,2.089,0,0,1,.833-.088,2.066,2.066,0,0,1,.8.243,2.107,2.107,0,0,1-.488,3.9,30.479,30.479,0,0,0-19.184,16.445,2.1,2.1,0,0,1-1.918,1.231" transform="translate(546.514 365.526)"/>
    <path id="Path_56" data-name="Path 56" d="M854.055,1057.594a2.108,2.108,0,0,1-1.241-.4,2.107,2.107,0,0,1,.008-3.413,20.83,20.83,0,0,1,19.241-2.583,2.111,2.111,0,0,1,1.262,2.719,2.178,2.178,0,0,1-.438.706,2.112,2.112,0,0,1-1.482.663,2.117,2.117,0,0,1-.816-.141,16.782,16.782,0,0,0-15.305,2.047,2.114,2.114,0,0,1-1.229.406" transform="translate(542.355 368.794)"/>
    <path id="Path_57" data-name="Path 57" d="M975.941,1356.891a2.106,2.106,0,0,1-.376-4.181,7.483,7.483,0,0,0,5.909-6.4,2.084,2.084,0,0,1,.243-.785,2.056,2.056,0,0,1,.522-.632,2.1,2.1,0,0,1,2.964.3,2.085,2.085,0,0,1,.463,1.544,11.674,11.674,0,0,1-9.348,10.116,2.808,2.808,0,0,1-.378.034" transform="translate(454.889 157.439)"/>
    <path id="Path_58" data-name="Path 58" d="M557.12,967.083a2.109,2.109,0,0,1-2.072-1.711l-2.837-14.794a2.111,2.111,0,0,1,.889-2.2,2.124,2.124,0,0,1,.772-.316,2.11,2.11,0,0,1,2.178.94,2.114,2.114,0,0,1,.3.779l2.367,12.321,9.032-3.49a2.108,2.108,0,0,1,1.517,3.933l-11.378,4.4a2.034,2.034,0,0,1-.766.141" transform="translate(757.501 441.922)" fill="#fff"/>
    <path id="Path_59" data-name="Path 59" d="M339.745,1031.428a2.107,2.107,0,0,1-.484-4.159c12.509-2.964,25.305-5.364,38.032-7.14a2.108,2.108,0,1,1,.583,4.176c-12.6,1.756-25.264,4.133-37.646,7.064a2.152,2.152,0,0,1-.485.059" transform="translate(911.461 390.188)" fill="#fff"/>
    <path id="Path_60" data-name="Path 60" d="M310.082,1064.224a2.107,2.107,0,0,1-.442-4.164c19.371-4.176,39.188-7.569,58.9-10.088a2.126,2.126,0,0,1,.833.042,2.087,2.087,0,0,1,.752.361,2.108,2.108,0,0,1-.255,3.529,2.189,2.189,0,0,1-.8.248c-19.589,2.5-39.286,5.875-58.541,10.026a2.156,2.156,0,0,1-.446.045" transform="translate(932.741 368.773)" fill="#fff"/>
    <path id="Path_61" data-name="Path 61" d="M1023.122,634.189a10.054,10.054,0,0,1-1.025-.049,2.582,2.582,0,0,1-1.911-1.075,2.306,2.306,0,0,1-.37-.918,2.336,2.336,0,0,1,.054-.988,2.165,2.165,0,0,1,.373-.734,2.108,2.108,0,0,1,2.228-.727,2.229,2.229,0,0,1,.6.278h.042a7.27,7.27,0,0,0,5.884-3.083,2.131,2.131,0,0,1,.584-.589,2.109,2.109,0,0,1,2.942.6,2.087,2.087,0,0,1,.291,1.6,2.091,2.091,0,0,1-.333.76,11.432,11.432,0,0,1-9.359,4.927" transform="translate(421.901 673.071)"/>
    <path id="Path_62" data-name="Path 62" d="M1094.662,585.355h-.093a2.107,2.107,0,0,1,.02-4.214h.073a6.48,6.48,0,0,0,5.618-3.378,2.107,2.107,0,0,1,2.925-1.056,2.083,2.083,0,0,1,.669.554,2.117,2.117,0,0,1,.39.776,2.14,2.14,0,0,1,.042.867,2.1,2.1,0,0,1-.311.811,10.789,10.789,0,0,1-9.334,5.64" transform="translate(369.737 708.58)"/>
    <path id="Path_63" data-name="Path 63" d="M1170.5,602.053a8.692,8.692,0,0,1-2.247-.3,2.11,2.11,0,0,1-1.488-2.583,2.127,2.127,0,0,1,.367-.737,2.105,2.105,0,0,1,2.216-.75,4.95,4.95,0,0,0,5.1-1.784,2.108,2.108,0,0,1,2.947-.444,2.1,2.1,0,0,1,.793,2.2,2.142,2.142,0,0,1-.35.744,9.22,9.22,0,0,1-7.343,3.645" transform="translate(316.467 695.244)"/>
    <path id="Path_64" data-name="Path 64" d="M1261.391,710.306a2.1,2.1,0,0,1-1.157-.351c-2.386-1.577-3.84-4.369-4.444-8.534a2.148,2.148,0,0,1,.02-.838,2.107,2.107,0,0,1,3.89-.564,2.156,2.156,0,0,1,.26.8c.421,2.908,1.271,4.745,2.6,5.619a2.107,2.107,0,0,1-1.166,3.863Z" transform="translate(252.55 620.679)"/>
    <path id="Path_65" data-name="Path 65" d="M1204.8,741.543a2.117,2.117,0,0,1-.974-.238,2.09,2.09,0,0,1-.751-.66,2.11,2.11,0,0,1-.257-1.929c.644-1.756,1.214-3.586,1.691-5.408a2.107,2.107,0,0,1,4.077,1.054c-.511,1.949-1.118,3.894-1.8,5.784a2.112,2.112,0,0,1-1.982,1.4" transform="translate(290.632 597.097)"/>
    <path id="Path_66" data-name="Path 66" d="M376.5,1276.874a2.113,2.113,0,0,1-.927-.214c-12.052-5.909-16.733-50.1-15.862-72.12.2-5.1.737-10.452,3.273-15.031a2.12,2.12,0,0,1,1.261-1.005,2.112,2.112,0,0,1,.819-.068,2.112,2.112,0,0,1,1.788,1.51,2.108,2.108,0,0,1-.182,1.6c-2.216,4-2.581,8.888-2.75,13.154-1.054,26.364,5.324,64.159,13.51,68.171a2.107,2.107,0,0,1-.931,4" transform="translate(895.692 269.395)"/>
    <path id="Path_67" data-name="Path 67" d="M406.049,1454.95s2.968,11.109-2.437,11.109c-3.463,0-6.216-8.467-6.216-8.467Z" transform="translate(868.574 78.115)"/>
    <path id="Path_68" data-name="Path 68" d="M398.282,1462.762c-4.635,0-7.462-7.6-8.221-9.924a2.11,2.11,0,0,1,.669-2.276,2.091,2.091,0,0,1,.736-.39l8.653-2.645a2.124,2.124,0,0,1,1.638.172,2.124,2.124,0,0,1,.639.548,2.09,2.09,0,0,1,.374.751c.351,1.383,2.079,8.464-.551,11.883a4.764,4.764,0,0,1-3.937,1.88m-3.452-9.215c1.208,2.809,2.76,5,3.452,5,.4,0,.5-.121.579-.229.737-.957.657-3.676.27-6.084Z" transform="translate(873.91 83.507)"/>
    <path id="Path_69" data-name="Path 69" d="M1128.674,1076.32s11.045,3.207,8.247,7.832c-1.79,2.964-10.46.94-10.46.94Z" transform="translate(345.343 349.848)"/>
    <path id="Path_70" data-name="Path 70" d="M1126.65,1082.513a27.676,27.676,0,0,1-6.016-.748,2.074,2.074,0,0,1-.757-.344,2.111,2.111,0,0,1-.807-2.222l2.211-8.78a2.064,2.064,0,0,1,.364-.757,2.1,2.1,0,0,1,1.431-.819,2.108,2.108,0,0,1,.839.071c1.372.4,8.314,2.595,9.884,6.615a4.761,4.761,0,0,1-.421,4.331c-1.254,2.078-4.026,2.654-6.728,2.654m-2.945-4.458c3.032.421,5.709.22,6.064-.353.212-.35.155-.491.1-.618-.437-1.129-2.809-2.456-5.065-3.377Z" transform="translate(350.693 355.224)"/>
    <path id="Path_71" data-name="Path 71" d="M918.26,1030.232a2.1,2.1,0,0,1-2.086-1.849,16.327,16.327,0,0,1,1.4-9.418,11.1,11.1,0,0,1,7.933-6.132,2.122,2.122,0,0,1,.833.014,2.11,2.11,0,0,1,1.626,1.717,2.122,2.122,0,0,1-.028.833,2.191,2.191,0,0,1-.35.754,2.111,2.111,0,0,1-1.4.841,6.981,6.981,0,0,0-4.85,3.862,12.546,12.546,0,0,0-.971,7.024,2.106,2.106,0,0,1-.059.819,2.1,2.1,0,0,1-1.776,1.53,1.829,1.829,0,0,1-.277.006" transform="translate(496.37 395.436)"/>
    <path id="Path_72" data-name="Path 72" d="M998.106,1042.891a2.5,2.5,0,0,1-.48-.054c-22.764-5.3-33.314-12.719-45.528-21.307-1.533-1.081-3.12-2.2-4.766-3.331a2.088,2.088,0,0,1-.59-.587,2.128,2.128,0,0,1-.319-.771,2.106,2.106,0,0,1,2.547-2.453,2.1,2.1,0,0,1,.759.344q2.486,1.719,4.794,3.351c12.343,8.679,22.095,15.534,44.06,20.649a2.107,2.107,0,0,1-.477,4.159" transform="translate(474.578 394.335)"/>
    <path id="Path_73" data-name="Path 73" d="M338.569,1452.605a4.829,4.829,0,1,1,3.407-1.414,4.837,4.837,0,0,1-3.407,1.414" transform="translate(914.252 86.719)"/>
    <path id="Path_74" data-name="Path 74" d="M1114.192,1145.207a4.829,4.829,0,1,1,3.4-1.409,4.825,4.825,0,0,1-3.4,1.409" transform="translate(357.609 307.33)"/>
    <path id="Path_75" data-name="Path 75" d="M725.23,412.881a2.107,2.107,0,0,1-.868-4.028,15.557,15.557,0,0,1,4.678-1.289,2.107,2.107,0,1,1,.47,4.186,11.485,11.485,0,0,0-3.424.938,2.106,2.106,0,0,1-.857.193" transform="translate(634.809 829.811)"/>
    <path id="Path_76" data-name="Path 76" d="M780.493,406.346a2.107,2.107,0,0,1-.4-4.175l4.358-.85a2.107,2.107,0,1,1,.808,4.134l-4.355.853a2.013,2.013,0,0,1-.407.039" transform="translate(595.149 834.316)"/>
    <path id="Path_77" data-name="Path 77" d="M789.652,436.154a3.354,3.354,0,0,1-.646-.06,3.429,3.429,0,1,1,.646.06" transform="translate(589.505 814.162)"/>
    <path id="Path_78" data-name="Path 78" d="M733.237,443.622a3.4,3.4,0,1,1,1.816-.535,3.411,3.411,0,0,1-1.816.535" transform="translate(629.997 808.798)"/>
    <rect id="Rectangle_7" data-name="Rectangle 7" width="475.224" height="430.706" transform="translate(1159.606 1115.563)" fill="none"/>
    <rect id="Rectangle_8" data-name="Rectangle 8" width="475.226" height="430.706" transform="translate(1159.606 1115.564)" fill="none"/>
  </g>
</svg>
