<svg id="Group_10" data-name="Group 10" xmlns="http://www.w3.org/2000/svg" xmlns:xlink="http://www.w3.org/1999/xlink" width="522.715" height="420.263" viewBox="0 0 522.715 420.263">
  <defs>
    <clipPath id="clip-path">
      <rect id="Rectangle_13" data-name="Rectangle 13" width="522.715" height="420.263"/>
    </clipPath>
  </defs>
  <g id="Group_9" data-name="Group 9" clip-path="url(#clip-path)">
    <path id="Path_158" data-name="Path 158" d="M208.758,771.823s-2.919-15.479,8.478-41.753c0,0-12.334,19.567,5.625,40.381Z" transform="translate(-146.415 -512.866)"/>
    <path id="Path_159" data-name="Path 159" d="M203.562,768.841a2.187,2.187,0,0,1-2.149-1.782c-.109-.589-2.36-13.323,5.472-35.083a31.274,31.274,0,0,1,3.316-8.244,2.189,2.189,0,0,1,3.86,2.038c-1.135,2.615-2.123,5.108-2.988,7.512a32.14,32.14,0,0,0-.8,4.433c-.978,9.244,2.068,18.032,9.054,26.127a2.19,2.19,0,0,1-.353,3.186,2.224,2.224,0,0,1-1.106.422l-14.107,1.374Zm3.13-19.7a62.412,62.412,0,0,0-1.178,15.134l7.942-.774a39.868,39.868,0,0,1-6.764-14.37Z" transform="translate(-141.222 -507.695)"/>
    <path id="Path_160" data-name="Path 160" d="M957.187,248.926a.68.68,0,0,1-.25,0c-.577-.19-1.1-1.033-1.467-2.343a15.879,15.879,0,0,1-.461-4.642c.092-2.293.185-3.883.274-5.418s.161-2.82.238-4.8a15.873,15.873,0,0,1,.259-2.347,9.036,9.036,0,0,1,.553-1.882,3.011,3.011,0,0,1,.759-1.13.865.865,0,0,1,.851-.206,1.66,1.66,0,0,1,.815.749,6.15,6.15,0,0,1,.651,1.591,13.424,13.424,0,0,1,.393,2.19,18.186,18.186,0,0,1,.071,2.456c-.092,2.283-.185,3.871-.274,5.407s-.161,2.82-.238,4.808a12.8,12.8,0,0,1-.72,3.974c-.4,1.026-.919,1.593-1.455,1.592" transform="translate(-670.874 -158.846)"/>
    <path id="Path_161" data-name="Path 161" d="M956.191,121.819c.173-3.283-.175-7,2.124-9.336,2.633-2.678,7.116-1.824,10.579-.4a48.16,48.16,0,0,1,18.428,13.571c-.265-8.234,3.769-17.051,11.338-20.309,8.952-3.856,19.737,1.328,25.4,9.263s7.447,17.909,9.077,27.522c1.458-2.554,3.841-4.907,6.774-5.042s5.837,3.145,4.451,5.728c4.311-.153,7.875,3.827,8.783,8.044s.279,16.052-.414,21.075c-4.742-7.891-58.636-32.505-104.608-26.872-2.187-1.959-6.4-8.573-6.712-11.557a5.817,5.817,0,0,1,2.065-5.034c1.955-1.521,3.737-.536,5.8.117,4.433,1.4,6.709-2.915,6.908-6.771" transform="translate(-661.316 -73.09)"/>
    <path id="Path_162" data-name="Path 162" d="M1047.605,168.905a2.2,2.2,0,0,1-1.877-1.058c-1.824-3.035-15.578-11.036-35.648-17.555-13.742-4.465-40.682-11.462-66.818-8.274a2.187,2.187,0,0,1-1.72-.536c-2.517-2.236-7.054-9.347-7.432-12.969A7.95,7.95,0,0,1,937,121.527c2.621-2.036,5.153-1.156,7-.518.268.095.536.19.815.274a2.186,2.186,0,0,0,2.1-.182c1.059-.73,1.824-2.587,1.946-4.619.024-.518.039-1.047.053-1.583.077-3.1.167-6.607,2.693-9.171,2.826-2.875,7.444-3.189,12.992-.883a50.275,50.275,0,0,1,15.741,10.4c1.306-7.723,5.947-14.388,12.305-17.146,10.377-4.472,22.2,1.824,28.049,10,5.082,7.11,7.17,15.687,8.646,23.771a9.043,9.043,0,0,1,5.323-2.207,7.16,7.16,0,0,1,6.164,3.364,6.008,6.008,0,0,1,.925,2.645c4.376,1.127,7.5,5.381,8.39,9.485.994,4.615.315,16.763-.387,21.838a2.182,2.182,0,0,1-1.726,1.842,2.273,2.273,0,0,1-.428.069m-90.562-32.075c22.019,0,42.8,5.531,54.391,9.3,14.724,4.786,28.017,11.006,34.455,15.891.449-5.688.6-13.06,0-15.917-.663-3.072-3.281-6.319-6.4-6.319h-.161a2.189,2.189,0,0,1-2-3.232,1.207,1.207,0,0,0-.179-1.186,2.779,2.779,0,0,0-2.246-1.313c-2.49.117-4.314,2.805-4.983,3.954a2.187,2.187,0,0,1-4.049-.73c-1.509-8.876-3.216-18.934-8.705-26.631-4.852-6.793-14.48-12.09-22.757-8.522-6.155,2.652-10.273,10.149-10.02,18.241a2.187,2.187,0,0,1-3.865,1.459,45.9,45.9,0,0,0-17.586-12.947c-1.767-.73-6.1-2.214-8.193-.091-1.312,1.332-1.372,3.7-1.437,6.2,0,.573-.03,1.142-.059,1.7-.137,2.678-1.214,6.184-3.823,7.99a6.533,6.533,0,0,1-5.924.755c-.309-.1-.616-.2-.919-.31-1.729-.6-2.19-.686-2.874-.164a3.651,3.651,0,0,0-1.232,3.075c.214,2.021,3.284,7.194,5.334,9.485a119.027,119.027,0,0,1,13.236-.686" transform="translate(-656.173 -67.87)"/>
    <path id="Path_163" data-name="Path 163" d="M1122.246,144.518a2.184,2.184,0,0,1-1.922-1.138c-4.2-7.679-1.223-18.241,6.37-22.589a2.191,2.191,0,1,1,2.187,3.8c-5.51,3.163-7.756,11.116-4.7,16.69a2.186,2.186,0,0,1-.042,2.171,2.19,2.19,0,0,1-1.889,1.069" transform="translate(-785.672 -84.648)"/>
    <path id="Path_164" data-name="Path 164" d="M1000.711,150.6a2.192,2.192,0,0,1-2.032-1.375,9.506,9.506,0,0,1,.226-7.5,2.191,2.191,0,1,1,3.96,1.875,5.041,5.041,0,0,0-.122,3.991,2.19,2.19,0,0,1-2.032,3.006" transform="translate(-701.097 -98.682)"/>
    <path id="Path_165" data-name="Path 165" d="M1145.111,169.746a2.192,2.192,0,0,1-2.032-1.375,9.508,9.508,0,0,1,.226-7.5,2.2,2.2,0,0,1,1.238-1.181,2.184,2.184,0,0,1,1.708.069,2.147,2.147,0,0,1,.7.523,2.17,2.17,0,0,1,.547,1.621,2.133,2.133,0,0,1-.238.84,5.1,5.1,0,0,0-.119,3.995,2.188,2.188,0,0,1-1.214,2.845,2.146,2.146,0,0,1-.815.161" transform="translate(-802.536 -112.083)"/>
    <path id="Path_166" data-name="Path 166" d="M891.393,425.893a2.195,2.195,0,0,1-2.19-1.937c-7.012-60.059-17.761-75.936-22.334-82.718-.363-.555-.729-1.062-1.02-1.532-6.5-10.069-4.786-17.117-2.189-21.254,3.879-6.2,12.2-9.507,18.219-9.234a106.173,106.173,0,0,0,13.052-15,2.19,2.19,0,0,1,3.588,2.513c-2.71,3.867-9.032,11.744-14.465,16.417a2.186,2.186,0,0,1-1.687.511c-4.118-.485-11.621,1.715-14.992,7.121-2.781,4.454-2.052,10.029,2.187,16.563.289.449.613.926.967,1.459,5.174,7.639,15.932,23.541,23.09,84.661a2.2,2.2,0,0,1-.455,1.613,2.212,2.212,0,0,1-.652.556,2.172,2.172,0,0,1-.812.262c-.134,0-.223,0-.306,0" transform="translate(-605.083 -206.027)"/>
    <path id="Path_167" data-name="Path 167" d="M1277.32,370.678a2.188,2.188,0,0,1-1.234-4.013,18.746,18.746,0,0,1,17.271-1.9,2.2,2.2,0,0,1,1.232,1.163,2.23,2.23,0,0,1,.187.844,2.192,2.192,0,0,1-.155.851,2.2,2.2,0,0,1-1.187,1.21,2.192,2.192,0,0,1-1.7,0,14.5,14.5,0,0,0-13.186,1.459,2.171,2.171,0,0,1-1.232.386" transform="translate(-895.748 -255.341)"/>
    <path id="Path_168" data-name="Path 168" d="M991.139,468.479a38.789,38.789,0,0,1-27.318-11.437c-.107-.117-.247-.252-.4-.4-2.127-2.087-4.174-4.319-3.888-6.662a3.474,3.474,0,0,1,1.752-2.59,13.363,13.363,0,0,1,4.974-1.3c.643-.087,1.25-.168,1.7-.266l56.911-12.44a2.191,2.191,0,0,1,2.517,1.372,2.228,2.228,0,0,1,.125,1.025c-1.788,15.107-13.864,28.507-28.695,31.863a34.676,34.676,0,0,1-7.676.843m-27-17.577a18.958,18.958,0,0,0,2.338,2.612l.464.46c7.988,8.143,20.115,11.827,30.9,9.39,12.067-2.725,22.057-12.988,24.774-25.019l-53.73,11.747c-.628.139-1.315.23-2.05.328a20.279,20.279,0,0,0-2.686.482Z" transform="translate(-674.04 -304.407)"/>
    <path id="Path_169" data-name="Path 169" d="M980.161,676.817a2.173,2.173,0,0,1-1.142-.321c-16.827-10.291-33.866-21.656-44.508-34.981a2.188,2.188,0,0,1-.416-.762,2.119,2.119,0,0,1-.089-.863,2.188,2.188,0,0,1,.253-.83,2.214,2.214,0,0,1,1.33-1.065,2.189,2.189,0,0,1,1.69.211,2.2,2.2,0,0,1,.651.577c9.982,12.5,26.115,23.387,42.226,33.291,5.076-3.124,10.142-6.146,15.06-9.077,24.628-14.685,47.893-28.558,66.265-51.555a2.219,2.219,0,0,1,.652-.575,2.193,2.193,0,0,1,1.69-.212,2.184,2.184,0,0,1,1.33,1.063,2.149,2.149,0,0,1,.253.83,2.175,2.175,0,0,1-.086.864,2.2,2.2,0,0,1-.419.761c-18.862,23.608-42.461,37.681-67.443,52.577-5.272,3.142-10.716,6.391-16.143,9.744a2.165,2.165,0,0,1-1.151.321" transform="translate(-656.121 -428.922)"/>
    <path id="Path_170" data-name="Path 170" d="M520.125,682.456h-.365a2.19,2.19,0,0,1-1.99-3.049,2.189,2.189,0,0,1,2.037-1.33c11.232.125,20.856-6.066,31.042-12.614,6.9-4.436,14.042-9.023,21.889-11.63,8.292-2.761,17.055-3.18,25.537-3.582,4.681-.226,9.518-.455,14.162-1.095,6.012-.812,6.479-2.35,6.479-2.8a9.281,9.281,0,0,1,3.378-7.322c4.378-3.669,11.816-3.971,15.752-3.282a2.191,2.191,0,0,1,1.422.9,2.217,2.217,0,0,1,.345.783,2.191,2.191,0,0,1-1.666,2.618,2.246,2.246,0,0,1-.857.015c-3.139-.55-9.184-.193-12.183,2.324a4.9,4.9,0,0,0-1.825,3.969c0,5.748-7.731,6.8-10.269,7.137-4.834.652-9.766.89-14.541,1.116-8.551.411-16.632.794-24.352,3.365-7.3,2.434-14.228,6.87-20.889,11.163-10.193,6.557-20.722,13.32-33.107,13.32" transform="translate(-363.605 -446.402)"/>
    <path id="Path_171" data-name="Path 171" d="M1174.658,799.94c-.547,0-1.113-.015-1.7-.045a2.191,2.191,0,0,1,.211-4.376c5.474.259,9.121-.952,13.376-2.353a53.84,53.84,0,0,1,20.159-3.338c7.018.131,35.219-.732,41.756-1.505,25.363-2.954,35.543-6.117,64.084-19.918.881-.425,1.758-.86,2.633-1.294a70.886,70.886,0,0,1,13.8-5.623c.589-.149,1.2-.292,1.824-.434,4.3-1.009,8.756-2.053,9.8-5.3a10.975,10.975,0,0,0,.282-3.427c-.259-16.054-.524-32.637-3.719-48.566-2.005-10-5.215-19.93-8.315-29.549-1.824-5.623-3.692-11.436-5.322-17.235-1.8-6.405-3.356-13-4.858-19.359-3.38-14.31-6.872-29.105-13.319-42.407-3.841-7.932-7.893-13.465-12.742-17.413-5.174-4.21-12.222-5.275-19.7-6.4-8.39-1.269-17.089-2.583-23.126-8.788-2.222-2.28-3.493-2.189-5.108-2.061-4.037.3-6.4-.974-8.887-9.076-.179-.577-.318-1.146-.455-1.7a10.5,10.5,0,0,0-1.012-2.919c-2.038-3.312-8.083-1.824-11.5-.66a2.2,2.2,0,0,1-.848.115,2.183,2.183,0,0,1-1.934-1.474,2.153,2.153,0,0,1-.116-.846,2.209,2.209,0,0,1,.217-.826,2.189,2.189,0,0,1,1.255-1.109c8.051-2.762,13.962-1.872,16.658,2.506a14.256,14.256,0,0,1,1.532,4.173c.128.514.25,1,.393,1.459,1.2,3.9,2.106,5.293,2.666,5.782.312.277.536.306,1.7.215,1.958-.146,4.912-.365,8.562,3.374,5.016,5.151,12.605,6.3,20.647,7.515,7.711,1.164,15.688,2.371,21.787,7.332,5.367,4.379,9.791,10.374,13.921,18.9,6.655,13.739,10.216,28.772,13.641,43.312,1.493,6.325,3.041,12.864,4.814,19.181,1.607,5.718,3.472,11.493,5.275,17.074,3.139,9.726,6.388,19.781,8.44,30.022,3.285,16.318,3.544,33.113,3.805,49.354a14.6,14.6,0,0,1-.5,4.849c-1.824,5.6-8,7.048-12.957,8.214-.6.14-1.187.28-1.755.419-4.451,1.095-8.565,3.151-12.921,5.3-.893.443-1.776.881-2.669,1.309-28.778,13.914-39.792,17.336-65.488,20.329-6.646.773-35.24,1.66-42.339,1.532a49.424,49.424,0,0,0-18.7,3.115c-4.031,1.354-7.881,2.624-13.245,2.624" transform="translate(-822.527 -379.676)"/>
    <path id="Path_172" data-name="Path 172" d="M1683.984,1231.7a2.19,2.19,0,0,1-.068-4.379,5.951,5.951,0,0,0,4.692-8.116,2.143,2.143,0,0,1-.247-.818,2.225,2.225,0,0,1,.086-.851,2.2,2.2,0,0,1,1.065-1.291,2.273,2.273,0,0,1,.818-.247,2.22,2.22,0,0,1,.851.086,2.256,2.256,0,0,1,.753.4,2.2,2.2,0,0,1,.541.664,10.315,10.315,0,0,1-8.426,14.554Z" transform="translate(-1181.419 -854.219)"/>
    <path id="Path_173" data-name="Path 173" d="M1449.107,687.936a2.046,2.046,0,0,1-.381-.033,2.182,2.182,0,0,1-1.773-2.535,40.258,40.258,0,0,1,24.116-29.739,2.19,2.19,0,0,1,1.636,4.061,35.813,35.813,0,0,0-21.445,26.437,2.184,2.184,0,0,1-2.154,1.809" transform="translate(-1016.446 -460.471)"/>
    <path id="Path_174" data-name="Path 174" d="M1435.589,795.045a2.195,2.195,0,0,1-2.189-2.139,7.811,7.811,0,0,1,2.817-6.152,2.172,2.172,0,0,1,.756-.419,2.139,2.139,0,0,1,.857-.1,2.194,2.194,0,0,1,1.5.788,2.163,2.163,0,0,1,.4.762,2.192,2.192,0,0,1,.083.857,2.228,2.228,0,0,1-.259.824,2.193,2.193,0,0,1-.553.66,3.421,3.421,0,0,0-1.223,2.675,2.174,2.174,0,0,1-.6,1.562,2.2,2.2,0,0,1-1.535.678Z" transform="translate(-1006.947 -552.318)"/>
    <path id="Path_175" data-name="Path 175" d="M1181.219,1120.84a44.548,44.548,0,0,1-12.085-1.773c-.574-.161-1.351-.446-2.335-.8-3.4-1.244-10.463-3.826-13.605-2.273a2.434,2.434,0,0,0-1.3,1.592,2.19,2.19,0,0,1-4.183-1.3,6.825,6.825,0,0,1,3.54-4.216c4.823-2.389,12.478.408,17.047,2.083.857.312,1.6.583,2.005.7a37.866,37.866,0,0,0,22.039-.077c2-.571,4.034-1.205,6-1.824,6.117-1.9,12.439-3.871,19.011-4.49,10.427-.985,19.624,1.949,25.235,8.048a2.2,2.2,0,0,1,.645,1.595,2.171,2.171,0,0,1-.193.854,2.227,2.227,0,0,1-.515.714,2.179,2.179,0,0,1-2.466.342,2.136,2.136,0,0,1-.687-.541c-4.683-5.085-12.555-7.509-21.605-6.652-6.123.577-12.222,2.478-18.121,4.314-1.99.619-4.052,1.261-6.1,1.848a44.3,44.3,0,0,1-12.335,1.862" transform="translate(-806.197 -778.549)"/>
    <path id="Path_176" data-name="Path 176" d="M1421.616,1109.86a2.189,2.189,0,0,1-1.095-4.094c8.08-4.6,17.577-3.4,27.413-1.645a2.194,2.194,0,0,1,1.755,1.687,2.225,2.225,0,0,1,.015.854,2.167,2.167,0,0,1-.9,1.41,2.093,2.093,0,0,1-.782.342,2.174,2.174,0,0,1-.854.018c-9.015-1.609-17.666-2.731-24.479,1.139a2.2,2.2,0,0,1-1.068.289" transform="translate(-997.122 -774.536)"/>
    <path id="Path_177" data-name="Path 177" d="M1409.559,966.779a2.2,2.2,0,0,1-2.085-1.529c-1.223-3.871.97-7.116,2.919-9.981a25.991,25.991,0,0,0,1.919-3.124,9.586,9.586,0,0,0-1.148-9.925,21.206,21.206,0,0,0-1.8-1.857,23.412,23.412,0,0,1-2.327-2.472c-2.805-3.6-3.383-8.155-3.582-12.549a108.766,108.766,0,0,1,1.583-24.191,2.2,2.2,0,0,1,.307-.806,2.189,2.189,0,0,1,1.377-.973,2.106,2.106,0,0,1,.863-.018,2.148,2.148,0,0,1,.8.315,2.2,2.2,0,0,1,.619.6,2.2,2.2,0,0,1,.342,1.654,104.67,104.67,0,0,0-1.52,23.218c.172,3.665.61,7.423,2.663,10.056a19.553,19.553,0,0,0,1.907,2,24.253,24.253,0,0,1,2.16,2.264,13.906,13.906,0,0,1,1.693,14.593,29.881,29.881,0,0,1-2.228,3.648c-1.824,2.71-2.919,4.48-2.359,6.2a2.2,2.2,0,0,1-.321,1.955,2.222,2.222,0,0,1-.776.66,2.2,2.2,0,0,1-.991.235Z" transform="translate(-985.832 -631.762)"/>
    <path id="Path_178" data-name="Path 178" d="M771.415,745.634a2.188,2.188,0,0,1-2.094-1.556,56.087,56.087,0,0,1-.92-29.183,2.2,2.2,0,0,1,.355-.779,2.165,2.165,0,0,1,.625-.58,2.212,2.212,0,0,1,.8-.3,2.191,2.191,0,0,1,2.481,2.666,51.691,51.691,0,0,0,.846,26.889,2.2,2.2,0,0,1,.085.851,2.2,2.2,0,0,1-1.544,1.883,2.193,2.193,0,0,1-.635.11" transform="translate(-538.74 -501.021)"/>
    <path id="Path_179" data-name="Path 179" d="M1173.066,1204.571a2.188,2.188,0,0,1-2.092-2.844c5.129-16.345,5.355-40.191.542-56.711a2.162,2.162,0,0,1-.075-.851A2.188,2.188,0,0,1,1173,1142.3a2.2,2.2,0,0,1,1.666.182,2.189,2.189,0,0,1,1.047,1.306c5.108,17.532,4.88,41.9-.565,59.246a2.187,2.187,0,0,1-2.085,1.535" transform="translate(-822.526 -802.393)"/>
    <path id="Path_180" data-name="Path 180" d="M1204.109,1287.243a2.193,2.193,0,0,1-2.035-2.993,52.246,52.246,0,0,0,3.57-20.721,2.189,2.189,0,0,1,4.376-.146,56.747,56.747,0,0,1-3.871,22.471,2.195,2.195,0,0,1-2.041,1.389" transform="translate(-844.338 -886.026)"/>
    <path id="Path_181" data-name="Path 181" d="M1215.392,1218.992a2.184,2.184,0,0,1-2.19-2.19v-2.553a2.188,2.188,0,1,1,4.377,0v2.553a2.184,2.184,0,0,1-2.187,2.19" transform="translate(-852.261 -851.459)"/>
    <path id="Path_182" data-name="Path 182" d="M965.138,1045.888a2.3,2.3,0,0,1-.533-.065,2.194,2.194,0,0,1-1.595-2.654,20.729,20.729,0,0,0-2.681-16.051,43.436,43.436,0,0,0-2.776-3.647,41.961,41.961,0,0,1-3.433-4.653A18.55,18.55,0,0,1,951.887,1004,14.426,14.426,0,0,1,963.2,993.788c7.259-1.047,13.629,4.3,16.714,10.059,2.234,4.162,3.285,8.717,4.3,13.132.363,1.532.729,3.115,1.128,4.638,1.824,6.887,4.582,11.368,8.39,13.695,2.737,1.678,6.132,2.288,9.416,2.877l14,2.523a2.189,2.189,0,0,1-.776,4.308l-13.995-2.52c-3.514-.634-7.494-1.348-10.946-3.451-4.8-2.945-8.185-8.28-10.329-16.3-.428-1.595-.8-3.216-1.16-4.787-1-4.317-1.937-8.39-3.894-12.04-2.288-4.269-7.09-8.527-12.231-7.792a10.082,10.082,0,0,0-7.744,7.122,14.456,14.456,0,0,0,1.785,11.308,37.875,37.875,0,0,0,3.085,4.159,48.011,48.011,0,0,1,3.053,4.046,25.187,25.187,0,0,1,3.255,19.487,2.188,2.188,0,0,1-2.1,1.636" transform="translate(-668.213 -698.033)"/>
    <path id="Path_183" data-name="Path 183" d="M1005.919,1044.074a11.928,11.928,0,0,1-5.909-1.627,11.232,11.232,0,0,1-5.647-7.747,2.19,2.19,0,0,1,1.8-2.481,2.188,2.188,0,0,1,2.514,1.752,7.42,7.42,0,0,0,9.333,5.367,2.189,2.189,0,0,1,1.532,4.1,10.31,10.31,0,0,1-3.624.637" transform="translate(-698.512 -725.101)"/>
    <path id="Path_184" data-name="Path 184" d="M837.073,1195.16a40.016,40.016,0,0,1-7.967-.756c-4.8-.958-9.375-5.328-11.636-11.133-1.538-3.954-1.657-7.774-.366-10.821a19.967,19.967,0,0,1-4.225-26.419c-1.621-.523-3.738-1.011-5.927-1.517-5.213-1.2-11.7-2.7-16.665-5.781-6.14-3.805-8.821-9.324-7.968-16.417a13.434,13.434,0,0,1,5.563-9.235,20.848,20.848,0,0,1,15.45-3.65c5.921.964,11.167,3.787,16.237,6.521,2.08,1.115,4.231,2.276,6.361,3.261a56.912,56.912,0,0,0,29.825,4.974,2.19,2.19,0,1,1,.458,4.356,61.35,61.35,0,0,1-32.128-5.349c-2.246-1.044-4.457-2.234-6.59-3.383-4.974-2.678-9.669-5.206-14.867-6.051a16.627,16.627,0,0,0-12.116,2.838,9.3,9.3,0,0,0-3.849,6.26c-1.354,11.228,8.832,14.518,21.272,17.389,4.26.985,7.628,1.761,9.7,3.153a2.194,2.194,0,0,1,.833,2.583,2.206,2.206,0,0,1-.533.809,15.234,15.234,0,0,0,3.118,23,2.212,2.212,0,0,1,.7.6,2.18,2.18,0,0,1,.39.836,2.2,2.2,0,0,1,.009.925,2.18,2.18,0,0,1-.372.845c-1.461,2.011-1.544,5.254-.211,8.681,1.681,4.308,5.141,7.774,8.417,8.428,13.861,2.773,29.882-3.421,44.026-8.89,11.451-4.43,20.5-7.926,26.63-6.081a2.19,2.19,0,1,1-1.261,4.195c-4.707-1.416-13.983,2.19-23.8,5.968-11.582,4.478-25.5,9.851-38.513,9.854" transform="translate(-549.463 -779.181)"/>
    <path id="Path_185" data-name="Path 185" d="M913.1,1316.81a32.285,32.285,0,0,1-14.8-3.594,2.189,2.189,0,0,1,2.011-3.888,27.856,27.856,0,0,0,18.348,2.553,2.228,2.228,0,0,1,.866-.024,2.172,2.172,0,0,1,.806.315,2.2,2.2,0,0,1,.625.6,2.23,2.23,0,0,1,.339.8,2.191,2.191,0,0,1-.33,1.666,2.235,2.235,0,0,1-.619.61,2.18,2.18,0,0,1-.806.318,31.771,31.771,0,0,1-6.435.643" transform="translate(-630.22 -919.622)"/>
    <path id="Path_186" data-name="Path 186" d="M910.909,1230.195a62.065,62.065,0,0,1-12.135-1.744,40.248,40.248,0,0,0-6.652-1.095,2.188,2.188,0,1,1,0-4.376,41.169,41.169,0,0,1,7.563,1.184,58.9,58.9,0,0,0,11.249,1.648,2.19,2.19,0,1,1,0,4.379Z" transform="translate(-625.168 -859.13)"/>
    <path id="Path_187" data-name="Path 187" d="M815.984,1161.733a2.19,2.19,0,0,1,0-4.379c3.05,0,6.078-4.5,6.541-6.394a5.257,5.257,0,0,0-1.488-4.954,2.189,2.189,0,1,1,2.984-3.2,9.629,9.629,0,0,1,2.758,9.19c-.7,2.868-4.793,9.74-10.794,9.74" transform="translate(-571.682 -802.394)"/>
    <path id="Path_188" data-name="Path 188" d="M232.575,633.188a2.193,2.193,0,0,1-1.525-.619c-3.393-3.284-7.927-10.69-9.54-20.683a44.766,44.766,0,0,1,7.759-33.047c10.215-14.856,18.97-23.469,26.679-31.072a189.2,189.2,0,0,0,13.236-13.951,9.621,9.621,0,0,1,7.723-3.473,9.453,9.453,0,0,1,7.373,3.849,20.48,20.48,0,0,1-4.849,29.616,2.189,2.189,0,0,1-2.553-3.557,16.092,16.092,0,0,0,3.878-23.45,5.106,5.106,0,0,0-3.995-2.08,5.243,5.243,0,0,0-4.232,1.9,193.681,193.681,0,0,1-13.524,14.26c-7.953,7.829-16.18,15.925-26.143,30.428-14.731,21.477-4.25,42.785,1.237,48.113a2.188,2.188,0,0,1-1.525,3.761" transform="translate(-155.209 -372.557)"/>
    <path id="Path_189" data-name="Path 189" d="M373.643,699.024a2.189,2.189,0,0,1-1.2-4.013c6.286-4.079,4.925-11.793,4.743-12.659a9.532,9.532,0,0,0-5.472-6.7,2.187,2.187,0,0,1-1.006-3.189,2.21,2.21,0,0,1,.944-.824,10.435,10.435,0,0,0-4.794-19.906,2.19,2.19,0,0,1-.945-4.2c3.648-1.541,5.6-6.861,4.214-11.389-1.5-4.9-6.2-6.964-12.86-5.654-10.16,1.995-20.025,9.995-26.507,16.359a2.189,2.189,0,0,1-3.068-3.124c6.913-6.78,17.511-15.321,28.729-17.511,10.58-2.079,16.191,3.112,17.894,8.669a14.777,14.777,0,0,1-2.335,13.32,14.7,14.7,0,0,1,4.692,25.4,13.836,13.836,0,0,1,4.819,7.9c1.065,5.251-.036,12.909-6.654,17.2a2.181,2.181,0,0,1-1.2.33" transform="translate(-229.742 -439.574)"/>
    <path id="Path_190" data-name="Path 190" d="M407.4,706.965a2.189,2.189,0,0,1-.562-4.3l14.272-3.8a2.189,2.189,0,0,1,1.127,4.228l-14.272,3.805a2.133,2.133,0,0,1-.566.071" transform="translate(-284.658 -490.901)"/>
    <path id="Path_191" data-name="Path 191" d="M416.215,787.192a2.193,2.193,0,0,1-.259-4.379l17.7-2.121a2.189,2.189,0,1,1,.522,4.347l-17.716,2.127a1.788,1.788,0,0,1-.252.027" transform="translate(-290.755 -548.416)"/>
    <path id="Path_192" data-name="Path 192" d="M1191.688,646.117a2.189,2.189,0,0,1-1.184-4.034,493.184,493.184,0,0,0,55.923-41.631c3.148-2.713,6.319-5.745,8.164-9.538,1.886-3.882-.122-7.752-2.454-12.24a31.916,31.916,0,0,1-3.308-8.081,2.222,2.222,0,0,1,0-.854,2.18,2.18,0,0,1,.327-.79,2.141,2.141,0,0,1,.6-.605,2.188,2.188,0,0,1,3.365,1.388,27.726,27.726,0,0,0,2.918,6.931c2.511,4.834,5.355,10.31,2.508,16.171-2.19,4.507-5.739,7.923-9.247,10.945a496.892,496.892,0,0,1-56.42,42.005,2.178,2.178,0,0,1-1.193.33" transform="translate(-835.606 -398.996)"/>
    <path id="Path_193" data-name="Path 193" d="M876.8,693.723a2.185,2.185,0,0,1-1.309-.437c-6.747-4.977-17.456-16.527-17.456-26.336a2.189,2.189,0,0,1,4.378,0c0,7.661,9.354,18.148,15.688,22.81a2.191,2.191,0,0,1,.794,2.457,2.17,2.17,0,0,1-.8,1.095,2.2,2.2,0,0,1-1.294.411" transform="translate(-602.762 -466.987)"/>
    <path id="Path_194" data-name="Path 194" d="M956.952,787.127a2.185,2.185,0,0,1-1.3-.425l-6.968-5.141a2.192,2.192,0,0,1-.827-2.288,2.184,2.184,0,0,1,.994-1.348,2.235,2.235,0,0,1,.8-.292,2.173,2.173,0,0,1,.854.042,2.147,2.147,0,0,1,.773.363l6.965,5.138a2.188,2.188,0,0,1-1.3,3.951Z" transform="translate(-665.817 -546.262)"/>
    <path id="Path_195" data-name="Path 195" d="M834.854,961.363a2.193,2.193,0,0,1-1.685-.791L822.5,947.7a2.189,2.189,0,0,1,3.371-2.794l10.664,12.867a2.178,2.178,0,0,1,.406.75,2.19,2.19,0,0,1-.695,2.332,2.15,2.15,0,0,1-1.394.5" transform="translate(-577.444 -663.233)"/>
    <path id="Path_196" data-name="Path 196" d="M866.167,869.953a2.186,2.186,0,0,1-2.08-1.508l-15.469-47.06a2.189,2.189,0,1,1,4.159-1.369l15.469,47.06a2.229,2.229,0,0,1,.1.851,2.257,2.257,0,0,1-.229.821,2.2,2.2,0,0,1-1.273,1.095,2.3,2.3,0,0,1-.681.11" transform="translate(-596.069 -574.995)"/>
    <path id="Path_197" data-name="Path 197" d="M801.192,1029.583a2.211,2.211,0,0,1-1.459-.55,28.275,28.275,0,0,0-8.869-5.323,2.19,2.19,0,0,1,1.533-4.1,32.755,32.755,0,0,1,10.233,6.144,2.19,2.19,0,0,1-1.459,3.832Z" transform="translate(-554.592 -716.174)"/>
    <path id="Path_198" data-name="Path 198" d="M1139.232,1339.9s1.919,13.781,4.62,13.781,6.986-15.712,6.986-15.712Z" transform="translate(-800.298 -939.91)"/>
    <path id="Path_199" data-name="Path 199" d="M1138.683,1350.7c-2.835,0-4.231-3.43-5.45-8.574-.833-3.508-1.318-6.953-1.339-7.1a2.188,2.188,0,0,1,1.824-2.457l11.609-1.931a2.222,2.222,0,0,1,1.08.092,2.2,2.2,0,0,1,1.407,1.559,2.236,2.236,0,0,1-.018,1.086c-.045.164-1.095,4.055-2.532,8.024-2.448,6.78-4.228,9.3-6.581,9.3m-2.127-14.171a48.4,48.4,0,0,0,2.234,8.9,59.99,59.99,0,0,0,3.8-9.9Z" transform="translate(-795.129 -934.741)"/>
    <path id="Path_200" data-name="Path 200" d="M1149.782,1139.492s.363-6.382,3.627-6.608c5.325-.366,6.325,8.616,6.325,8.616Z" transform="translate(-807.71 -795.832)"/>
    <path id="Path_201" data-name="Path 201" d="M1154.562,1138.5a2.128,2.128,0,0,1-.434-.045l-9.952-2.011a2.184,2.184,0,0,1-1.752-2.267c.047-.851.625-8.315,5.659-8.669,5.861-.417,8.2,6.447,8.655,10.562a2.187,2.187,0,0,1-.55,1.708,2.17,2.17,0,0,1-.741.535,2.22,2.22,0,0,1-.9.188Zm-7.494-5.935,4.594.925c-.628-1.824-1.69-3.725-3.282-3.615-.4.033-.967,1.2-1.312,2.693Z" transform="translate(-802.538 -790.644)"/>
    <path id="Path_202" data-name="Path 202" d="M360.427,578.771a19.714,19.714,0,0,1-5.242-.7,2.19,2.19,0,1,1,1.167-4.221,15.648,15.648,0,0,0,11.068-1.095,2.189,2.189,0,1,1,1.966,3.911,20.015,20.015,0,0,1-8.96,2.109" transform="translate(-248.385 -402.178)"/>
    <path id="Path_203" data-name="Path 203" d="M326.062,1019.3H189.217a2.188,2.188,0,1,1,0-4.376H324.055l12.7-145.028a2.272,2.272,0,0,0-.587-1.731,2.283,2.283,0,0,0-1.671-.735H180.786a2.282,2.282,0,0,0-1.671.735,2.27,2.27,0,0,0-.587,1.731l3.816,37.412a2.191,2.191,0,0,1-1.139,2.148,2.139,2.139,0,0,1-.817.25,2.185,2.185,0,0,1-2.4-1.955l-3.82-37.445a6.652,6.652,0,0,1,6.618-7.256H334.5a6.645,6.645,0,0,1,6.618,7.227L328.251,1017.3a2.19,2.19,0,0,1-2.189,2" transform="translate(-122.331 -606.283)" fill="#146ef5"/>
    <rect id="Rectangle_11" data-name="Rectangle 11" width="142.122" height="125.942" transform="translate(15.582 286.981)"/>
    <path id="Path_204" data-name="Path 204" d="M187.191,1076.253H45.068a3.1,3.1,0,0,1-3.094-3.1V947.215a3.09,3.09,0,0,1,3.094-3.1H187.191a3.091,3.091,0,0,1,3.094,3.1v125.942a3.1,3.1,0,0,1-3.094,3.1m-139.028-6.192H184.1V950.306H48.163Z" transform="translate(-29.486 -660.234)"/>
    <path id="Path_205" data-name="Path 205" d="M209.876,1279.379H98.968a2.408,2.408,0,0,1-1.754-.769,2.75,2.75,0,0,1,0-3.724,2.409,2.409,0,0,1,1.754-.769H209.876a2.407,2.407,0,0,1,1.754.769,2.749,2.749,0,0,1,0,3.724,2.406,2.406,0,0,1-1.754.769" transform="translate(-67.781 -895.053)" fill="#fff"/>
    <path id="Path_206" data-name="Path 206" d="M209.876,1217.349H98.968a2.408,2.408,0,0,1-1.754-.769,2.75,2.75,0,0,1,0-3.724,2.408,2.408,0,0,1,1.754-.769H209.876a2.406,2.406,0,0,1,1.754.769,2.749,2.749,0,0,1,0,3.724,2.407,2.407,0,0,1-1.754.769" transform="translate(-67.781 -851.478)" fill="#fff"/>
    <path id="Path_207" data-name="Path 207" d="M209.876,1155.32H98.968a2.408,2.408,0,0,1-1.754-.769,2.75,2.75,0,0,1,0-3.724,2.408,2.408,0,0,1,1.754-.769H209.876a2.407,2.407,0,0,1,1.754.769,2.749,2.749,0,0,1,0,3.724,2.407,2.407,0,0,1-1.754.769" transform="translate(-67.781 -807.903)" fill="#fff"/>
    <path id="Path_208" data-name="Path 208" d="M209.876,1093.29H98.968a2.408,2.408,0,0,1-1.754-.769,2.75,2.75,0,0,1,0-3.724,2.408,2.408,0,0,1,1.754-.769H209.876a2.407,2.407,0,0,1,1.754.769,2.749,2.749,0,0,1,0,3.724,2.407,2.407,0,0,1-1.754.769" transform="translate(-67.781 -764.327)" fill="#fff"/>
    <path id="Path_209" data-name="Path 209" d="M159.115,1032.532H97.857a1.193,1.193,0,0,1-.969-.769,4.522,4.522,0,0,1,0-3.725,1.194,1.194,0,0,1,.969-.769h61.258a1.193,1.193,0,0,1,.969.769,4.522,4.522,0,0,1,0,3.725,1.193,1.193,0,0,1-.969.769" transform="translate(-67.781 -721.645)" fill="#fff"/>
    <rect id="Rectangle_12" data-name="Rectangle 12" width="72.755" height="64.472" transform="translate(144.521 58.494)" fill="#146ef5"/>
    <path id="Path_210" data-name="Path 210" d="M554.781,258.925H482.026a1.586,1.586,0,0,1-1.584-1.585V192.868a1.582,1.582,0,0,1,1.584-1.585h72.755a1.582,1.582,0,0,1,1.584,1.585V257.34a1.586,1.586,0,0,1-1.584,1.585m-71.171-3.17H553.2V194.45H483.61Z" transform="translate(-337.505 -134.374)" fill="#146ef5"/>
    <path id="Path_211" data-name="Path 211" d="M618.186,439.09h-55.01a1.194,1.194,0,0,1-.87-.382,1.364,1.364,0,0,1,0-1.847,1.2,1.2,0,0,1,.87-.382h55.01a1.2,1.2,0,0,1,.87.382,1.363,1.363,0,0,1,0,1.847,1.193,1.193,0,0,1-.87.382" transform="translate(-394.76 -306.622)" fill="#fff"/>
    <path id="Path_212" data-name="Path 212" d="M566.394,331.155H509.618a1.233,1.233,0,0,1-.9-.394,1.408,1.408,0,0,1,0-1.907,1.233,1.233,0,0,1,.9-.394h56.776a1.233,1.233,0,0,1,.9.394,1.408,1.408,0,0,1,0,1.907,1.232,1.232,0,0,1-.9.394" transform="translate(-357.109 -230.74)" fill="#fff"/>
    <path id="Path_213" data-name="Path 213" d="M566.394,299.4H509.618a1.233,1.233,0,0,1-.9-.394,1.408,1.408,0,0,1,0-1.907,1.234,1.234,0,0,1,.9-.394h56.776a1.233,1.233,0,0,1,.9.394,1.408,1.408,0,0,1,0,1.907,1.232,1.232,0,0,1-.9.394" transform="translate(-357.109 -208.434)" fill="#fff"/>
    <path id="Path_214" data-name="Path 214" d="M566.394,267.647H509.618a1.233,1.233,0,0,1-.9-.394,1.408,1.408,0,0,1,0-1.907,1.234,1.234,0,0,1,.9-.394h56.776a1.233,1.233,0,0,1,.9.394,1.408,1.408,0,0,1,0,1.907,1.232,1.232,0,0,1-.9.394" transform="translate(-357.109 -186.127)" fill="#fff"/>
    <path id="Path_215" data-name="Path 215" d="M540.408,236.544H509.049a.611.611,0,0,1-.5-.394,2.316,2.316,0,0,1,0-1.907.611.611,0,0,1,.5-.394h31.359a.611.611,0,0,1,.5.394,2.316,2.316,0,0,1,0,1.907.611.611,0,0,1-.5.394" transform="translate(-357.109 -164.277)" fill="#fff"/>
    <path id="Path_216" data-name="Path 216" d="M1105.412,357.535a2.195,2.195,0,0,1-1.1-.3,23.539,23.539,0,0,0-8.149-2.769,2.177,2.177,0,0,1-.827-.273,2.146,2.146,0,0,1-.655-.574,2.208,2.208,0,0,1-.381-.784,2.248,2.248,0,0,1-.045-.869,2.209,2.209,0,0,1,.892-1.455,2.2,2.2,0,0,1,.8-.355,2.179,2.179,0,0,1,.869-.017,27.872,27.872,0,0,1,9.69,3.305,2.193,2.193,0,0,1,.928,1.058,2.189,2.189,0,0,1-2.023,3.028Z" transform="translate(-768.691 -245.947)"/>
    <path id="Path_217" data-name="Path 217" d="M1003.461,349.61a2.189,2.189,0,0,1-.946-4.166,20.95,20.95,0,0,1,7.575-1.973,2.187,2.187,0,0,1,.848.111,2.161,2.161,0,0,1,.741.428,2.193,2.193,0,0,1-1.3,3.838,16.54,16.54,0,0,0-5.977,1.561,2.2,2.2,0,0,1-.94.2" transform="translate(-703.378 -241.281)"/>
    <path id="Path_218" data-name="Path 218" d="M1016.462,380.354a3.792,3.792,0,1,1,.687-.062,4.014,4.014,0,0,1-.687.062" transform="translate(-711.39 -261.864)"/>
    <path id="Path_219" data-name="Path 219" d="M1082.763,389.771a3.8,3.8,0,0,1-3.038-1.556,3.83,3.83,0,0,1-.678-1.617,3.782,3.782,0,1,1,4.418,3.1,3.991,3.991,0,0,1-.7.077" transform="translate(-757.983 -268.479)"/>
    <path id="Path_220" data-name="Path 220" d="M1048.452,302.122a2.19,2.19,0,0,1-.657-.1c-22.67-7.15-54.526-19.36-91.176-15.5a2.187,2.187,0,0,1-2.413-1.939,2.165,2.165,0,0,1,.074-.851c.08-.276-.031-3.306.151-3.531a2.19,2.19,0,0,1,1.47-.805c37.436-3.955,70.2,11.2,93.2,18.445a2.189,2.189,0,0,1-.66,4.279Z" transform="translate(-670.31 -195.819)"/>
    <path id="Path_221" data-name="Path 221" d="M1270.045,425.557a2.191,2.191,0,0,1-2.109-1.613c-4.073-14.877-7.857-30.05-11.258-45.095-1.279-5.651-1.981-11.481,1.49-15.844a18.162,18.162,0,0,1,6.1-4.462c.78-.416,1.517-.81,2.211-1.237a14.309,14.309,0,0,0,6.6-8.391,9.512,9.512,0,0,0-2.553-9.358c-3.418-2.977-8.854-2.532-12.814-1.631a45.768,45.768,0,0,0-15.685,6.881,2.189,2.189,0,0,1-2.484-3.6,50.209,50.209,0,0,1,17.2-7.545c7.093-1.612,12.855-.729,16.658,2.6A13.922,13.922,0,0,1,1277.339,350a18.673,18.673,0,0,1-8.556,11.032c-.809.5-1.639.941-2.443,1.368a14.782,14.782,0,0,0-4.742,3.327c-2.443,3.061-1.615,7.876-.648,12.148,3.386,14.983,7.155,30.09,11.21,44.905a2.193,2.193,0,0,1-1.532,2.689,2.132,2.132,0,0,1-.583.091" transform="translate(-870.115 -233.842)"/>
    <path id="Path_222" data-name="Path 222" d="M262.363,1394.046H2.189a2.188,2.188,0,1,1,0-4.376H262.363a2.188,2.188,0,1,1,0,4.376" transform="translate(0 -976.228)"/>
    <path id="Path_223" data-name="Path 223" d="M540.265,40.126H502.012a7.7,7.7,0,0,1-7.7-7.7V7.7a7.7,7.7,0,0,1,7.7-7.7h38.253a7.7,7.7,0,0,1,7.7,7.7V32.424a7.7,7.7,0,0,1-7.7,7.7" transform="translate(-347.247)" fill="#146ef5"/>
    <path id="Path_224" data-name="Path 224" d="M557.414,42.8V53.668a2.7,2.7,0,0,0,3.725,2.492L574.3,50.725a2.7,2.7,0,0,0,0-4.983l-13.157-5.434a2.7,2.7,0,0,0-3.725,2.492" transform="translate(-391.577 -28.17)" fill="#fff"/>
    <path id="Path_225" data-name="Path 225" d="M172.858,110.329a9.274,9.274,0,1,1-9.274,9.274,9.274,9.274,0,0,1,9.274-9.274m16.855-10.495v0H148.484v0H136.167v0l-.034,0-.008,0-.07,0v0l-.008,0a9.273,9.273,0,0,0-9.23,9.22v33.768l5-5,8.5-8.5h0l.025-.023.007,0,.048-.051v0l0-.007a9.274,9.274,0,0,1,13.046-.007l7.457,7.458h0l5.471,5.473v0l7.447-7.446h0l.025-.023.007,0,.048-.051h0l0-.007a9.274,9.274,0,0,1,13.046-.007l7.114,7.114h0l3.752,3.752v0l1.246,1.246V109.057a9.274,9.274,0,0,0-9.23-9.22l-.008,0v0l-.07,0-.008,0-.034,0M164.592,84.192a9.286,9.286,0,0,0-2.364.307l-.007,0v0l-.067.02h-.008l-.033.007v0l-12.347,3.307h0l-7.744,2.075h0L122.289,95.2v0l-11.9,3.188v0l-.032.01-.007,0-.068.016v0h-.008a9.273,9.273,0,0,0-6.529,11.295l2.73,10.187v0l6.437,24.025v0l2.476,9.242a9.283,9.283,0,0,0,8.59,6.735,13.459,13.459,0,0,1-1.4-5.795V109.034a13.512,13.512,0,0,1,13.4-13.434l.007,0a.038.038,0,0,1,.015,0l.007,0c.058,0,.116-.006.174-.006s.14,0,.21.005v0l11.947,0,.008,0c.046,0,.091,0,.137,0v0h20.372v0a.45.45,0,0,1,.057,0v0h5.844l-1.228-4.584a9.278,9.278,0,0,0-8.938-6.824m-17.664,47.363a4.247,4.247,0,0,0-3.013,1.248l0,0h0v0l-.009.006c-.03.03-.06.06-.087.093l-.007,0h0l-5.456,5.459-11.529,11.528v4.151a9.28,9.28,0,0,0,9.273,9.135l.009,0v0l.007,0,.007,0,.052,0h.007v0l14.978,0h0v0l26.576,0h0l11.98,0v0h.007l.052,0,.007,0,.007,0v0l.009,0a9.28,9.28,0,0,0,9.273-9.135v-.235l-5-5h0L183.4,138.146a4.265,4.265,0,0,0-5.981.047l0,0h0l-.009.006c-.03.03-.059.06-.087.093l-.007,0h0l-9.172,9.179a2.5,2.5,0,0,1-3.533-.022l-.008,0v0l-2.911-2.912h0L149.9,132.756a4.255,4.255,0,0,0-2.968-1.2" transform="translate(-72.668 -59.144)" fill="#146ef5"/>
  </g>
</svg>
