<?xml version="1.0" encoding="UTF-8"?>
<svg id="uuid-80dbf684-499c-4a1d-82fc-9e32e1477f6c" data-name="Layer 1" xmlns="http://www.w3.org/2000/svg" width="344" height="33.6327" viewBox="0 0 344 33.6327">
  <path d="M44.8225,7.5023V0c-8.6024,0-16.4575,3.2502-22.4112,8.5823C16.4575,3.2502,8.6024,0,0,0V7.5023c6.6857,0,12.7903,2.5267,17.4165,6.6717-1.4865,2.0875-2.7418,4.3486-3.726,6.7506C10.2748,17.2475,5.4028,14.9409,0,14.9409v7.5023c6.1701,0,11.1897,5.0196,11.1897,11.1895h7.5023c0-4.9034,1.36-9.494,3.7192-13.4191,2.3591,3.925,3.7192,8.5157,3.7192,13.4191h7.5023c0-6.1699,5.0196-11.1895,11.1897-11.1895v-7.5023c-5.4028,0-10.2748,2.3066-13.6905,5.9837-.9842-2.4019-2.2395-4.6631-3.726-6.7506,4.6262-4.145,10.7309-6.6717,17.4165-6.6717Z" fill="#00e8b1"/>
  <g>
    <path d="M98.8976,3.4154V30.2174h-7.8108v-10.3763h-16.0812v10.3763h-7.811V3.4154h7.811V13.4087h16.0812V3.4154h7.8108Z" fill="#fff"/>
    <path d="M110.6166,3.4154l7.811,11.5632,7.7724-11.5632h8.6917l-12.5969,17.766v9.036h-7.811v-9.036L101.8868,3.4154h8.7298Z" fill="#fff"/>
    <path d="M168.6644,12.7962c0,6.2409-4.8626,9.3806-12.1759,9.3806h-10.7973v8.0406h-7.8108V3.4154h18.6081c7.3133,0,12.1759,3.2163,12.1759,9.3808Zm-7.9258,.1531c0-2.7186-1.9909-3.5993-4.9009-3.5993h-10.1465v7.1599h10.1465c2.9101,0,4.9009-.8806,4.9009-3.5607Z" fill="#fff"/>
    <path d="M201.3654,24.2443v5.973h-28.6016V3.4154h28.1804v5.973h-20.4844v4.4032h16.8854v5.7049h-16.8854v4.7478h20.9057Z" fill="#fff"/>
    <path d="M213.8884,9.5799v5.0924h16.9235v6.0878h-16.9235v9.4573h-7.811V3.4154h28.0656v6.1645h-20.2546Z" fill="#fff"/>
    <path d="M257.1567,25.0866h-14.7028l-2.5272,5.1307h-8.1937l13.8605-26.802h8.5383l13.8605,26.802h-8.3087l-2.5269-5.1307Zm-2.7186-5.5518l-4.6328-9.4956-4.6711,9.4956h9.3039Z" fill="#fff"/>
    <path d="M293.6863,30.2174l-7.0833-8.4619h-7.8875v8.4619h-7.7727V3.4154h18.7998c6.8537,0,12.1757,3.0249,12.1757,9.151,0,4.4797-2.8332,7.3131-7.0449,8.5383l7.8875,9.1127h-9.0746Zm-4.518-14.1284c2.7951,0,4.8245-.7659,4.8245-3.3695s-2.0294-3.3695-4.8245-3.3695h-10.491v6.7389h10.491Z" fill="#fff"/>
    <path d="M344,3.4154V30.2174h-7.7727V13.1025l-10.6825,13.0946h-.3829l-10.6825-13.0946V30.2174h-7.5429V3.4154h8.5385l10.0698,12.8651,10.1465-12.8651h8.3087Z" fill="#fff"/>
  </g>
</svg>