<svg xmlns="http://www.w3.org/2000/svg" xmlns:xlink="http://www.w3.org/1999/xlink" width="513.801" height="402.238" viewBox="0 0 513.801 402.238">
  <defs>
    <clipPath id="clip-path">
      <rect id="Rectangle_14" data-name="Rectangle 14" width="513.801" height="402.238" transform="translate(0 0)"/>
    </clipPath>
  </defs>
  <g id="Group_12" data-name="Group 12" transform="translate(0 -0.002)">
    <g id="Group_11" data-name="Group 11" transform="translate(0 0.002)" clip-path="url(#clip-path)">
      <path id="Path_226" data-name="Path 226" d="M1172.908,254.1a2.326,2.326,0,0,1-.474-.049c-19.581-4.374-37.517-16.343-50.5-33.686a102.8,102.8,0,0,1-15.152-29.05,110.97,110.97,0,0,1-5.654-34.557,102.616,102.616,0,1,1,205.23-.651c0,34.506-18.079,67.819-47.193,86.939a2.175,2.175,0,0,1-1.68.414,2.166,2.166,0,0,1-.822-.325,2.176,2.176,0,0,1-.952-1.445,2.2,2.2,0,0,1,.03-.882,2.164,2.164,0,0,1,1.047-1.379c27.9-18.327,45.232-50.255,45.232-83.311A98.274,98.274,0,0,0,1201.867,57.86c-53.48,1-96.722,45.36-96.391,98.887.279,45.193,28.841,84.343,67.916,93.076a2.169,2.169,0,0,1-.473,4.288Z" transform="translate(-803.24 -39.017)" fill="#146ef5"/>
      <path id="Path_227" data-name="Path 227" d="M1441.609,197.008c-10.8,0-19.578-6.653-19.578-14.824s8.781-14.824,19.578-14.824,19.578,6.653,19.578,14.824-8.784,14.824-19.578,14.824m0-25.308c-8.4,0-15.239,4.7-15.239,10.485s6.836,10.485,15.239,10.485,15.239-4.7,15.239-10.485-6.836-10.5-15.239-10.5Z" transform="translate(-1037.333 -122.086)" fill="#146ef5"/>
      <path id="Path_228" data-name="Path 228" d="M1235.27,336.771c-25.562,0-49.612-7.546-67.729-21.248-18.3-13.84-28.37-32.3-28.37-51.973a2.168,2.168,0,1,1,4.336,0c0,37.981,41.163,68.882,91.763,68.882a110.28,110.28,0,0,0,59.1-17.13c15.7-10.123,27.083-23.692,31.219-37.239a2.17,2.17,0,0,1,4.15,1.269c-4.431,14.52-16.464,28.963-33.021,39.629a114.768,114.768,0,0,1-61.45,17.81" transform="translate(-830.994 -190.671)" fill="#146ef5"/>
      <path id="Path_229" data-name="Path 229" d="M1224.422,606.4c-36.237,0-70.14-14.321-93.018-39.289a2.17,2.17,0,0,1,3.2-2.932c22.053,24.075,54.793,37.883,89.818,37.883,36.654,0,70.318-14.856,92.366-40.764a2.149,2.149,0,0,1,.663-.525,2.169,2.169,0,0,1,2.394.279,2.138,2.138,0,0,1,.525.664,2.16,2.16,0,0,1-.279,2.395,118.655,118.655,0,0,1-41.4,30.793,130.994,130.994,0,0,1-54.265,11.5" transform="translate(-824.913 -408.892)" fill="#146ef5"/>
      <path id="Path_230" data-name="Path 230" d="M1268.112,385.862a2.169,2.169,0,0,1-2.115-1.694,141.3,141.3,0,0,1,1.988-69.151c3.008-10.593,9.333-23.421,17.82-36.108,8.018-12,17.271-22.777,25.383-29.589a2.169,2.169,0,0,1,2.4-.261,2.131,2.131,0,0,1,.66.53,2.173,2.173,0,0,1,.408.743,2.164,2.164,0,0,1-.146,1.654,2.168,2.168,0,0,1-.53.66c-15.071,12.636-35.469,41.191-41.821,63.557a136.974,136.974,0,0,0-1.921,67.015,2.163,2.163,0,0,1-.284,1.639,2.178,2.178,0,0,1-1.361.955,2.376,2.376,0,0,1-.479.049" transform="translate(-921.058 -181.504)" fill="#146ef5"/>
      <path id="Path_231" data-name="Path 231" d="M1106.548,263.25a2.163,2.163,0,0,1-2.164-2.009,2.16,2.16,0,0,1,.1-.84c1.71-5.2,5.394-9.375,9.12-13.11a128.41,128.41,0,0,1,42.857-28.924c6.923-2.795,22.151-7.531,35.312-7.531a2.169,2.169,0,1,1,0,4.338c-10.875,0-25.083,3.742-33.689,7.231a124.265,124.265,0,0,0-41.407,27.973c-3.349,3.359-6.641,7.065-8.07,11.4a2.173,2.173,0,0,1-2.062,1.468" transform="translate(-805.614 -153.8)" fill="#146ef5"/>
      <path id="Path_232" data-name="Path 232" d="M1598.592,357.645a2.167,2.167,0,0,1-2.129-1.782c-4.856-26.577-11.208-46.936-19.938-64.074-10.748-21.056-24.055-36.01-39.557-44.445a2.17,2.17,0,0,1-.649-.542,2.194,2.194,0,0,1-.4-.75,2.219,2.219,0,0,1-.076-.843,2.169,2.169,0,0,1,3.195-1.676c16.27,8.862,30.191,24.433,41.345,46.278,8.944,17.524,15.409,38.263,20.341,65.267a2.167,2.167,0,0,1-.346,1.627,2.171,2.171,0,0,1-1.4.9,2.38,2.38,0,0,1-.392.036" transform="translate(-1120.352 -177.459)" fill="#146ef5"/>
      <path id="Path_233" data-name="Path 233" d="M1271.7,175.393a2.182,2.182,0,0,1-.584-.08c-16.656-4.631-40.406-8.71-57.125-6.277a2.169,2.169,0,0,1-.6-4.3c21.859-3.182,50.615,4.085,58.9,6.392a2.169,2.169,0,0,1-.581,4.259Z" transform="translate(-883.825 -119.597)" fill="#146ef5"/>
      <path id="Path_234" data-name="Path 234" d="M1484.588,401.082a2.17,2.17,0,0,1-2.021-1.388c-3.214-8.317-4.8-16.994-6.195-27.479-3.663-27.478-3.69-63.036-.07-105.659a2.161,2.161,0,0,1,.235-.816,2.178,2.178,0,0,1,2.933-.938,2.16,2.16,0,0,1,.663.529,2.19,2.19,0,0,1,.509,1.587c-3.6,42.3-3.577,77.541.046,104.715,1.355,10.167,2.892,18.558,5.941,26.473a2.156,2.156,0,0,1-.041,1.661,2.215,2.215,0,0,1-.487.693,2.177,2.177,0,0,1-.717.452,2.119,2.119,0,0,1-.8.17" transform="translate(-1074.956 -192.99)" fill="#146ef5"/>
      <path id="Path_235" data-name="Path 235" d="M1634.248,254.95a2.164,2.164,0,0,1-1.515-.618c-19.683-19.256-50.946-34.347-74.338-35.909a2.174,2.174,0,0,1,.284-4.339c24.323,1.613,56.738,17.231,77.087,37.142a2.158,2.158,0,0,1,.6,1.11,2.169,2.169,0,0,1-.914,2.238,2.163,2.163,0,0,1-1.207.369Z" transform="translate(-1135.325 -156.166)" fill="#146ef5"/>
      <path id="Path_236" data-name="Path 236" d="M1515.792,108.235a2.139,2.139,0,0,1-1.063-.282,2.169,2.169,0,0,1-.822-2.954c3.882-6.869,15.017-21.331,22.462-24.43a2.17,2.17,0,0,1,2.419.428,2.2,2.2,0,0,1,.484.717,2.159,2.159,0,0,1-.016,1.694,2.131,2.131,0,0,1-.495.709,2.168,2.168,0,0,1-.733.459c-5.784,2.4-16.161,15.134-20.344,22.553a2.168,2.168,0,0,1-1.891,1.106" transform="translate(-1104.149 -58.632)" fill="#146ef5"/>
      <path id="Path_237" data-name="Path 237" d="M1600.8,175.885a2.126,2.126,0,0,1-.771-.141,80.336,80.336,0,0,0-54.955-.242,2.171,2.171,0,0,1-2.727-2.97,2.15,2.15,0,0,1,.517-.683,2.173,2.173,0,0,1,.741-.429,84.711,84.711,0,0,1,57.958.268,2.164,2.164,0,0,1,1.364,2.416,2.168,2.168,0,0,1-2.126,1.781" transform="translate(-1124.941 -121.416)" fill="#146ef5"/>
      <path id="Path_238" data-name="Path 238" d="M1414.859,95a2.169,2.169,0,0,1-1.988-1.3c-2.808-6.37-10.556-17.463-18.174-24.278-.362-.3-.722-.6-1.109-.918a15.7,15.7,0,0,1-2.564-2.386,2.17,2.17,0,0,1,3.371-2.733,12.417,12.417,0,0,0,1.9,1.728c.425.34.866.69,1.3,1.085,8.162,7.3,16.2,18.829,19.253,25.76a2.167,2.167,0,0,1-1.112,2.86,2.122,2.122,0,0,1-.871.181" transform="translate(-1014.36 -45.652)" fill="#146ef5"/>
      <path id="Path_239" data-name="Path 239" d="M719.249,428.984a2.209,2.209,0,0,1-.723-.123,2.169,2.169,0,0,1-1.316-2.773l.184-.52c5.709-16.064,11.613-32.669,23.2-45.356,3.615-3.977,7.56-12.618,4.978-19.448-1.866-4.935-6.87-7.871-14.824-8.731a2.235,2.235,0,0,1-.694-.2L712.2,343.374a2.172,2.172,0,0,1,1.866-3.923l17.531,8.316c11.845,1.385,16.353,6.989,18.048,11.468,3.044,8.052-.723,18.327-5.832,23.913-11.013,12.029-16.769,28.215-22.333,43.885l-.188.521a2.169,2.169,0,0,1-2.043,1.432" transform="translate(-518.626 -247.467)"/>
      <path id="Path_240" data-name="Path 240" d="M675.3,489.875a37.074,37.074,0,0,1-19.636-5.608,2.169,2.169,0,1,1,2.3-3.677,32.728,32.728,0,0,0,24.585,4.129,2.169,2.169,0,1,1,.976,4.226,36.419,36.419,0,0,1-8.229.929" transform="translate(-477.546 -350.337)"/>
      <path id="Path_241" data-name="Path 241" d="M483.339,484.472h-.04a11.971,11.971,0,0,1-4.772-.785,5.576,5.576,0,0,1-3.475-5.159,2.172,2.172,0,0,1,4.339.22c0,.264.361.723.9.976a8.65,8.65,0,0,0,3.088.409,2.169,2.169,0,1,1-.036,4.338Z" transform="translate(-346.534 -347.57)"/>
      <path id="Path_242" data-name="Path 242" d="M196.541,304.216c7.867-1.417,15.246-3.529,25.41-.593,1.652-5.535.925-17.21-15.821-17.145-9.212.036-18.117,5.633-27.116,3.652a58.007,58.007,0,0,0-6.165-1.417,18.091,18.091,0,0,0-7.983,1.171c-9.7,3.445-16.931,11.689-22.3,20.467s-9.35,18.381-15.131,26.9c-14.953,22.011-40.161,34.416-64.449,45.3-7.549,3.384-16.06,7.806-17.824,15.876-1.266,5.756,1.421,11.648,4.769,16.493a30.858,30.858,0,0,0-15.944,29.98c1.33,11.952,6.905,21.4,18.526,24.5,21.733-59.9,64.261-72.227,76.431-79.683,27.033-16.552,27.738-35.07,26.393-37.6-1.754-3.312-14.422-11.244-4.83-19.8,4.83-4.3,12.1-2.531,18.041.6,6.591,1.844,15.691-9.241,18.8-12.654a42.451,42.451,0,0,0,9.2-16.038" transform="translate(-24.665 -208.978)"/>
      <path id="Path_243" data-name="Path 243" d="M46.655,465.707a2.067,2.067,0,0,1-.561-.076c-11.587-3.087-18.547-12.2-20.12-26.347A32.967,32.967,0,0,1,41,408.331c-3.616-5.88-4.9-11.328-3.818-16.224,2.169-9.82,13.153-14.747,19.057-17.39,24.224-10.846,49.069-23.229,63.538-44.539a149.993,149.993,0,0,0,8.515-14.9c2.057-3.945,4.183-8.023,6.562-11.909,6.779-11.067,14.661-18.262,23.428-21.378a20.1,20.1,0,0,1,8.945-1.284,27.758,27.758,0,0,1,4.3.922c.723.2,1.41.383,2.1.535,4.65,1.023,9.4-.239,14.462-1.573a48.629,48.629,0,0,1,12.184-2.13h.148c7.31,0,12.585,2.1,15.684,6.24,3.254,4.339,3.2,9.921,2.075,13.692a2.169,2.169,0,0,1-2.679,1.464c-8.406-2.426-14.766-1.2-21.494.094l-1.649.314a44.926,44.926,0,0,1-9.241,15.583c-.253.278-.542.607-.871.976-4.143,4.668-12.766,14.382-20.117,12.325a2.1,2.1,0,0,1-.43-.17c-3.89-2.054-11.092-4.9-15.583-.9-1.84,1.638-2.762,3.254-2.827,4.9-.123,3.229,3.055,6.533,5.372,8.948a16.874,16.874,0,0,1,2.755,3.319c1.255,2.372.792,8.608-2.531,15.492-3.091,6.4-9.874,15.908-24.661,24.972-1.887,1.153-4.443,2.408-7.4,3.861C99.383,398.124,66.93,414.053,48.7,464.276a2.168,2.168,0,0,1-2.043,1.431M165.5,284.952a17.318,17.318,0,0,0-5.763,1.124c-7.806,2.777-14.936,9.353-21.183,19.556-2.3,3.757-4.393,7.77-6.414,11.649a150.29,150.29,0,0,1-8.771,15.333C108.263,354.854,82.8,367.57,58.018,378.676c-7.213,3.229-15.037,7.271-16.588,14.361-.925,4.216.568,9.194,4.436,14.794a2.179,2.179,0,0,1,.35.844,2.172,2.172,0,0,1-1.127,2.313,28.847,28.847,0,0,0-14.805,27.818c.9,8.07,4.274,18.22,15.048,22.053,8.1-21.493,19.885-39.283,35.023-52.893,13.077-11.755,26-18.078,34.553-22.294,2.864-1.4,5.333-2.614,7.046-3.666,25.623-15.688,26.393-32.648,25.609-34.767a18.64,18.64,0,0,0-2.032-2.306c-2.7-2.809-6.775-7.054-6.58-12.123.112-2.86,1.547-5.539,4.274-7.954,4.733-4.219,11.931-4.154,20.265.181,4.765,1.034,12.553-7.744,15.51-11.078l.9-1.008a40.406,40.406,0,0,0,8.713-15.185,2.169,2.169,0,0,1,1.692-1.5c.966-.174,1.92-.362,2.892-.542,6.37-1.225,12.936-2.491,21.252-.586a10.958,10.958,0,0,0-1.808-7.8c-2.235-2.986-6.342-4.5-12.209-4.5h-.13c-3.648,0-7.263.973-11.092,1.985-5.322,1.41-10.821,2.867-16.5,1.616-.788-.174-1.558-.383-2.3-.586a24.24,24.24,0,0,0-3.633-.8,12,12,0,0,0-1.273-.1" transform="translate(-18.812 -203.129)"/>
      <path id="Path_244" data-name="Path 244" d="M65.649,824.022A2.169,2.169,0,0,1,63.809,823a16.883,16.883,0,0,1,3.1-20.969,2.169,2.169,0,0,1,2.852,3.254,12.423,12.423,0,0,0-2.3,15.42,2.17,2.17,0,0,1-1.808,3.311" transform="translate(-44.838 -584.744)"/>
      <path id="Path_245" data-name="Path 245" d="M490.625,360.861a15.948,15.948,0,0,1-5.684-1.034,2.17,2.17,0,0,1,1.551-4.053,11.638,11.638,0,0,0,15.377-7.755,2.169,2.169,0,0,1,2.585-1.533,5.214,5.214,0,0,0,5.984-4.429,2.174,2.174,0,1,1,4.338.289,9.162,9.162,0,0,1-3.807,6.671,9.454,9.454,0,0,1-5.51,1.909,16.27,16.27,0,0,1-7.593,8.243,16.07,16.07,0,0,1-7.242,1.692" transform="translate(-352.735 -248.041)"/>
      <path id="Path_246" data-name="Path 246" d="M468.575,667.4a145.346,145.346,0,0,1-62.909-14.328,2.17,2.17,0,0,1,1.88-3.912,140.94,140.94,0,0,0,72.526,13.431c6.125-.5,13.822-1.522,20.583-4.877a11.573,11.573,0,0,1-.965-7.2c.134-.893.314-1.764.492-2.607a16.03,16.03,0,0,0,.539-4.96,4.382,4.382,0,0,0-1.544-2.831,1.681,1.681,0,0,0-1.276-.4,2.169,2.169,0,1,1-.658-4.288,6.016,6.016,0,0,1,4.566,1.237,8.761,8.761,0,0,1,3.221,5.785,19.408,19.408,0,0,1-.6,6.36c-.173.817-.336,1.587-.448,2.346-.137.954-.459,4.161,1.305,5.47a2.169,2.169,0,0,1-.177,3.615c-8.019,4.8-17.4,6.1-24.683,6.693q-5.929.467-11.852.465" transform="translate(-295.025 -463.486)"/>
      <path id="Path_247" data-name="Path 247" d="M491.937,656.777c-18.743,0-35.927-3.579-48.549-10.406a2.17,2.17,0,0,1,2.064-3.818c17.383,9.4,44.036,12.325,71.294,7.817a2.171,2.171,0,0,1,.723,4.28,157.013,157.013,0,0,1-25.532,2.126" transform="translate(-322.609 -468.536)" fill="#146ef5"/>
      <path id="Path_248" data-name="Path 248" d="M365.715,738.21a2.177,2.177,0,0,1-2.01-1.358A27.74,27.74,0,0,0,348.549,721.8a2.17,2.17,0,0,1,1.605-4.031,32.167,32.167,0,0,1,17.557,17.457,2.165,2.165,0,0,1-.21,2.026,2.164,2.164,0,0,1-1.8.96Z" transform="translate(-253.26 -523.48)" fill="#146ef5"/>
      <path id="Path_249" data-name="Path 249" d="M446.584,986.852a2.17,2.17,0,0,1-.723-4.22c1.768-.611,5.756-1.447,9.975-2.31,2.4-.5,4.884-1.017,6.83-1.469a2.173,2.173,0,0,1,.846-.024,2.141,2.141,0,0,1,.792.3,2.169,2.169,0,0,1,.965,1.35,2.168,2.168,0,0,1-.852,2.256,2.193,2.193,0,0,1-.771.349c-1.992.463-4.5.982-6.931,1.488-3.9.806-7.932,1.645-9.44,2.17a2.14,2.14,0,0,1-.691.114" transform="translate(-324.178 -714.007)"/>
      <path id="Path_250" data-name="Path 250" d="M431.425,1025.351a2.169,2.169,0,0,1-.5-4.277c9.4-2.245,19.021-4.147,28.562-5.651a2.135,2.135,0,0,1,.859.016,2.157,2.157,0,0,1,.785.349,2.133,2.133,0,0,1,.588.625,2.166,2.166,0,0,1-1.556,3.292c-9.433,1.491-18.934,3.368-28.233,5.586a2.094,2.094,0,0,1-.5.06" transform="translate(-313.138 -740.698)"/>
      <path id="Path_251" data-name="Path 251" d="M3.968,1017.607a2.079,2.079,0,0,1-.408-.04,2.167,2.167,0,0,1-1.721-2.53C4.872,999.214,12.9,980.29,19.977,963.6c2.936-6.92,5.705-13.453,8.008-19.456a2.158,2.158,0,0,1,.444-.733,2.155,2.155,0,0,1,1.529-.7,2.152,2.152,0,0,1,.846.141,2.2,2.2,0,0,1,.724.46,2.172,2.172,0,0,1,.506,2.389c-2.328,6.071-5.116,12.653-8.063,19.592-7,16.491-14.928,35.19-17.875,50.551a2.17,2.17,0,0,1-2.13,1.769" transform="translate(-1.314 -687.678)"/>
      <path id="Path_252" data-name="Path 252" d="M301.5,1153.207a2.167,2.167,0,0,1-1.8-.958,2.172,2.172,0,0,1-.212-2.026l5.94-14.7a7.354,7.354,0,0,0,.625-2.062c.083-1.239-.846-2.632-1.663-3.7a33.67,33.67,0,0,0-5.835-5.949,2.169,2.169,0,0,1,2.7-3.4,38.11,38.11,0,0,1,6.588,6.728c1.273,1.672,2.715,3.933,2.531,6.617a11.034,11.034,0,0,1-.933,3.4l-5.944,14.7a2.168,2.168,0,0,1-2,1.342" transform="translate(-217.209 -816.983)"/>
      <path id="Path_253" data-name="Path 253" d="M320.916,1110.2H320.7a2.139,2.139,0,0,1-.81-.246,2.169,2.169,0,0,1-1.135-2.129,36.124,36.124,0,0,0-3.348-19.161,2.175,2.175,0,0,1-.095-1.661,2.141,2.141,0,0,1,.43-.73,2.167,2.167,0,0,1,2.338-.606,2.109,2.109,0,0,1,.731.43,2.169,2.169,0,0,1,.511.676,40.5,40.5,0,0,1,3.753,21.469,2.169,2.169,0,0,1-2.159,1.958" transform="translate(-229.922 -791.878)"/>
      <path id="Path_254" data-name="Path 254" d="M98.606,1314.562c-6.432,0-13.088-.087-20-.262-8.493-.214-16.081-.685-22.958-4.272-8.887-4.64-15.279-14.178-17.542-26.182-1.974-10.456-.759-21,.416-31.189a2.164,2.164,0,0,1,.238-.828,2.136,2.136,0,0,1,.543-.671,2.161,2.161,0,0,1,.762-.408,2.19,2.19,0,0,1,.86-.076,2.177,2.177,0,0,1,1.475.828,2.17,2.17,0,0,1,.431,1.637c-1.139,9.872-2.314,20.081-.463,29.885,1.985,10.532,7.7,19.183,15.286,23.138,6.052,3.157,13.117,3.582,21.064,3.782,44.6,1.128,78.387-1.355,109.549-8.053l1.15-.249c6.786-1.469,13.8-2.987,20.8-1.418a47.251,47.251,0,0,1,10.25,4.012c1.649.8,3.355,1.628,5.043,2.31a40.325,40.325,0,0,0,20.608,2.575c2.169-.3,4.429-.792,6.605-1.269,4.953-1.085,10.076-2.207,15.33-1.374a51.917,51.917,0,0,1,5.159,1.164,28.73,28.73,0,0,0,7.715,1.3c3.391-.073,5.593-2.062,5.761-3.942.135-1.553-1.228-2.729-3.74-3.254-3.225-.647-7.122-1.223-10.9-1.781-3.7-.543-7.2-1.058-9.371-1.561a2.169,2.169,0,0,1,.973-4.226c2,.463,5.423.966,9.039,1.5,3.829.566,7.784,1.15,11.118,1.807,5.733,1.15,7.465,4.959,7.2,7.872-.327,3.731-3.944,7.764-9.985,7.9a31.927,31.927,0,0,1-8.9-1.447c-1.638-.427-3.182-.828-4.747-1.084-4.447-.722-8.952.281-13.739,1.328-2.256.5-4.592,1.006-6.938,1.328a44.613,44.613,0,0,1-22.832-2.851c-1.808-.722-3.594-1.6-5.307-2.429a43.517,43.517,0,0,0-9.306-3.682c-6.067-1.364-12.607.054-18.934,1.426l-1.157.249c-26.657,5.8-55.176,8.478-90.561,8.478" transform="translate(-27.03 -912.323)"/>
      <path id="Path_255" data-name="Path 255" d="M111.216,1406.013a7.059,7.059,0,0,1-6.605-9.677,2.17,2.17,0,1,1,4.035,1.6,2.745,2.745,0,0,0,3.948,3.373,2.176,2.176,0,1,1,2.238,3.733,7.018,7.018,0,0,1-3.615.969" transform="translate(-75.944 -1017.591)"/>
      <path id="Path_256" data-name="Path 256" d="M428.413,1303.312a2.169,2.169,0,0,1-.684-4.228c5.562-1.845,6.2-4.245,6.19-5.887,0-3.614-4.109-6.509-10.2-7.126a189.857,189.857,0,0,1-32.177-6.363c-8.594-2.31-15.908-4.282-24.885-4.282H366.1a82.687,82.687,0,0,1-17.853-1.891c-7.737-1.713-16.353-3.739-25.471-5.884-32.723-7.7-73.445-17.284-87.918-15.06-5.557.855-11.956,2.17-17.267,5.589a2.168,2.168,0,1,1-2.343-3.649c5.994-3.844,12.947-5.305,18.952-6.228,15.3-2.348,54.756,6.936,89.57,15.125,9.1,2.143,17.716,4.163,25.417,5.873a78.306,78.306,0,0,0,16.913,1.788h.571c9.538,0,17.174,2.056,26.006,4.431a184.8,184.8,0,0,0,31.484,6.233c9.706,1.009,14.067,6.465,14.1,11.424,0,4.629-3.065,8-9.163,10.023a2.156,2.156,0,0,1-.682.111" transform="translate(-156.287 -910.334)"/>
      <path id="Path_257" data-name="Path 257" d="M898.663,1411.175a2.173,2.173,0,0,1-.249-4.339,19.156,19.156,0,0,0,5.8-1.274,5.028,5.028,0,0,0,2.962-3.252c.338-1.875-1.182-3.814-2.859-4.764-2.145-1.209-4.842-1.485-7.453-1.753l-21.331-2.17a2.176,2.176,0,0,1-1.462-.787,2.165,2.165,0,0,1-.476-1.591,2.169,2.169,0,0,1,.249-.809,2.18,2.18,0,0,1,1.287-1.05,2.169,2.169,0,0,1,.843-.079l21.331,2.17c2.892.3,6.209.636,9.144,2.291,3.571,2.013,5.627,5.846,5,9.317a9.158,9.158,0,0,1-5.424,6.428,22.99,22.99,0,0,1-7.126,1.645,2.347,2.347,0,0,1-.235.016" transform="translate(-637.258 -1013.455)"/>
      <path id="Path_258" data-name="Path 258" d="M663.21,1374.756a7.83,7.83,0,0,1-6.034-2.384,5.722,5.722,0,0,1-1.128-5.3,4.53,4.53,0,0,1,3.106-3.211,2.169,2.169,0,1,1,1.186,4.172.834.834,0,0,0-.166.484,1.338,1.338,0,0,0,.249.974c.654.722,2.05,1.058,3.738.866a2.171,2.171,0,0,1,.492,4.315,13.525,13.525,0,0,1-1.442.087" transform="translate(-478.402 -994.829)"/>
      <path id="Path_259" data-name="Path 259" d="M880.456,755.4a2.144,2.144,0,0,1-1.177-.346,2.186,2.186,0,0,1-.8-.928,25.461,25.461,0,0,0-17.038-13.989q-.881-.215-1.767-.408a39.247,39.247,0,0,1-4.445-1.185c-5.34-1.869-9.431-7.155-11.211-14.5a74.6,74.6,0,0,1-1.323-7.913,57.207,57.207,0,0,0-1.569-8.679c-2.73-9.455-10.7-17.831-21.887-22.984-10.271-4.733-21.765-6.421-32.9-8.052a2.169,2.169,0,0,1,.629-4.291c11.421,1.674,23.229,3.406,34.072,8.4,12.325,5.68,21.161,15.053,24.223,25.72a62.42,62.42,0,0,1,1.7,9.336,68.912,68.912,0,0,0,1.239,7.458c.679,2.786,2.857,9.479,8.435,11.432a34.987,34.987,0,0,0,3.952,1.044c.617.138,1.236.279,1.85.43A29.853,29.853,0,0,1,882.4,752.361a2.17,2.17,0,0,1-1.978,3.062Z" transform="translate(-572.296 -490.283)"/>
      <path id="Path_260" data-name="Path 260" d="M904.574,1112.568h-.1a2.169,2.169,0,0,1-2.064-2.267l2.748-58.932c.26-5.567.528-11.324,2.361-16.862,2.112-6.393,6.215-11.4,11.26-13.74a2.169,2.169,0,0,1,1.807,3.936c-3.977,1.831-7.231,5.9-8.963,11.154-1.645,4.972-1.9,10.429-2.144,15.7l-2.752,58.932a2.171,2.171,0,0,1-2.151,2.075" transform="translate(-658.281 -744.512)"/>
      <path id="Path_261" data-name="Path 261" d="M916.566,1010.24a2.171,2.171,0,0,1-2.169-2.04,50.306,50.306,0,0,1,9.958-32.839,2.17,2.17,0,0,1,3.46,2.619,45.908,45.908,0,0,0-9.079,29.961,2.171,2.171,0,0,1-2.039,2.291Z" transform="translate(-666.975 -710.872)"/>
      <path id="Path_262" data-name="Path 262" d="M107.49,696.383a2.17,2.17,0,0,1-1.746-.879,7,7,0,0,1,2.8-10.279,2.171,2.171,0,0,1,1.7,4,2.682,2.682,0,0,0-1.012,3.706,2.169,2.169,0,0,1-1.743,3.457" transform="translate(-76.249 -499.728)"/>
      <path id="Path_263" data-name="Path 263" d="M1121.98,1008.838a2.192,2.192,0,0,1-1.634-.722c-4.5-5.14-8.962-10.421-13.264-15.7a2.172,2.172,0,0,1-.506-1.6,2.167,2.167,0,0,1,3.217-1.694,2.141,2.141,0,0,1,.652.555c4.274,5.243,8.7,10.486,13.167,15.588a2.172,2.172,0,0,1-1.631,3.6Z" transform="translate(-807.21 -721.333)" fill="#3a3a3a"/>
      <path id="Path_264" data-name="Path 264" d="M1087.482,1077.2a2.148,2.148,0,0,1-1.009-.249,2.174,2.174,0,0,1-1.017-2.7,32.946,32.946,0,0,1,21.25-19.524,2.17,2.17,0,1,1,1.2,4.153,28.522,28.522,0,0,0-18.4,16.905,2.2,2.2,0,0,1-.79,1.023,2.178,2.178,0,0,1-1.231.39" transform="translate(-791.706 -769.292)" fill="#3a3a3a"/>
      <path id="Path_265" data-name="Path 265" d="M1139.849,1072.951a2.169,2.169,0,0,1-2.17-2,19.749,19.749,0,0,1,6.936-16.518,2.169,2.169,0,0,1,2.784,3.325,15.369,15.369,0,0,0-5.386,12.842,2.108,2.108,0,0,1-.1.841,2.143,2.143,0,0,1-.411.741,2.166,2.166,0,0,1-.665.525,2.141,2.141,0,0,1-.814.233Z" transform="translate(-829.868 -768.836)" fill="#3a3a3a"/>
      <path id="Path_266" data-name="Path 266" d="M942.539,1336.454a2.178,2.178,0,0,1-1.364-.482,96.943,96.943,0,0,1-14.624-14.227,2.17,2.17,0,1,1,3.3-2.819A93.063,93.063,0,0,0,943.9,1332.6a2.171,2.171,0,0,1-1.363,3.855" transform="translate(-675.515 -961.566)"/>
      <path id="Path_267" data-name="Path 267" d="M1065.66,912.1a31.242,31.242,0,0,1-20.876-7.883,2.17,2.17,0,0,1,1.25-3.812,2.2,2.2,0,0,1,.839.1,2.174,2.174,0,0,1,.739.417c11.93,10.25,27.229,9.076,46.733-3.614,15.588-10.123,26.317-26.13,34.76-40.444a363.692,363.692,0,0,0,35.674-82.343l.66-2.272c3.073-10.569,6.249-21.5,13.892-29.566s10.718-9.458,18.91-13.112c1-.449,2.086-.933,3.252-1.472,4.369-1.98,9.149-4.6,11.508-8.984a10.253,10.253,0,0,0,.674-7.687,5.968,5.968,0,0,0-2.979-3.648c-2.3-1.085-5.475-.51-8.508,1.544a38.908,38.908,0,0,0-4.729,4.05c-1.18,1.106-2.4,2.251-3.717,3.3-7.734,6.146-11.714,6.219-18.307,6.349-1.926.038-4.109.079-6.75.279-11.035.817-23.468,2.375-31.324,10.537a2.168,2.168,0,0,1-3.068.06,2.169,2.169,0,0,1-.06-3.068c8.919-9.266,22.294-10.978,34.13-11.857,2.759-.206,5-.249,6.985-.289,6.441-.127,9.109-.176,15.7-5.423,1.174-.936,2.275-1.97,3.441-3.066a43.378,43.378,0,0,1,5.292-4.462c4.315-2.921,9.1-3.616,12.793-1.873a10.243,10.243,0,0,1,5.245,6.215,14.571,14.571,0,0,1-.971,11.095c-2.973,5.527-8.511,8.6-13.537,10.883-1.2.544-2.289,1.031-3.3,1.48-8.037,3.59-10.461,4.675-17.527,12.136-6.92,7.307-9.945,17.717-12.872,27.794l-.663,2.281a368.194,368.194,0,0,1-36.1,83.325c-8.7,14.752-19.794,31.265-36.134,41.878-11.43,7.442-21.818,11.154-31.051,11.154" transform="translate(-761.59 -512.757)"/>
      <path id="Path_268" data-name="Path 268" d="M1638.945,754.092a2.17,2.17,0,0,1-2-1.344,11.756,11.756,0,0,1,2.656-12.655,2.17,2.17,0,0,1,3.011,3.125,7.422,7.422,0,0,0-1.656,7.886,2.166,2.166,0,0,1-.005,1.658,2.154,2.154,0,0,1-1.177,1.171,2.207,2.207,0,0,1-.825.16" transform="translate(-1193.506 -539.435)" fill="#3a3a3a"/>
      <path id="Path_269" data-name="Path 269" d="M1162.735,865.474a2.17,2.17,0,0,1-1.334-3.879,175.663,175.663,0,0,0,38.1-40.963c2.17-3.254,4.318-6.755,4.418-10.486a16.483,16.483,0,0,0-1.12-4.082c-1.567-4.458-3.931-11.208.546-16.632a2.167,2.167,0,0,1,2.321-.722,2.121,2.121,0,0,1,.755.4,2.1,2.1,0,0,1,.538.663,2.126,2.126,0,0,1,.241.82,2.154,2.154,0,0,1-.092.85,2.2,2.2,0,0,1-.414.747c-2.922,3.547-1.266,8.265.2,12.431a17.309,17.309,0,0,1,1.366,5.641c-.133,4.872-2.73,9.141-5.151,12.761A180.121,180.121,0,0,1,1164.055,865a2.186,2.186,0,0,1-1.32.473" transform="translate(-846.602 -575.275)"/>
      <path id="Path_270" data-name="Path 270" d="M1117.584,1393.7a9.276,9.276,0,0,1-6.99-3.151,2.172,2.172,0,0,1,3.3-2.822,4.728,4.728,0,0,0,8.316-2.892,2.168,2.168,0,0,1,2.167-2.086h.087a2.167,2.167,0,0,1,2.083,2.251,9.243,9.243,0,0,1-6.087,8.24,8.827,8.827,0,0,1-2.878.46" transform="translate(-809.77 -1008.679)" fill="#3a3a3a"/>
      <path id="Path_271" data-name="Path 271" d="M1404.323,855.431a2.115,2.115,0,0,1-1.136-.325,5.288,5.288,0,0,1,.049-8.779,2.17,2.17,0,0,1,2.235,3.72,1.04,1.04,0,0,0,0,1.369,2.168,2.168,0,0,1-1.139,4.015Z" transform="translate(-1021.897 -617.148)" fill="#3a3a3a"/>
      <path id="Path_272" data-name="Path 272" d="M910.5,764.422a2.17,2.17,0,0,1-1.876-3.254,16.187,16.187,0,0,0,1.482-12.5,2.169,2.169,0,0,1,4.158-1.236,20.607,20.607,0,0,1-1.869,15.907,2.169,2.169,0,0,1-1.895,1.079" transform="translate(-662.602 -544.133)"/>
      <path id="Path_273" data-name="Path 273" d="M231.021,1243.783a2.11,2.11,0,0,1-.488-.057,75.8,75.8,0,0,0-16.089-1.94,2.168,2.168,0,1,1,.025-4.337h.029a79.867,79.867,0,0,1,16.993,2.051,2.168,2.168,0,0,1-.488,4.282Z" transform="translate(-154.858 -902.687)"/>
      <path id="Path_274" data-name="Path 274" d="M711.685,821.416h-.123a2.159,2.159,0,0,1-1.5-.717,2.176,2.176,0,0,1-.551-1.569,320.691,320.691,0,0,0-6.4-83.336,2.17,2.17,0,0,1,4.248-.893,325.228,325.228,0,0,1,6.483,84.464,2.169,2.169,0,0,1-2.162,2.051" transform="translate(-512.871 -534.834)"/>
      <path id="Path_275" data-name="Path 275" d="M744.657,792.752a2.17,2.17,0,0,1-.3-4.318l3.312-.473a2.171,2.171,0,0,1,.845.046,2.175,2.175,0,0,1,1.61,1.8,2.166,2.166,0,0,1-.411,1.607,2.118,2.118,0,0,1-.63.565,2.159,2.159,0,0,1-.8.281l-3.315.473a1.956,1.956,0,0,1-.307.022" transform="translate(-541.627 -574.781)"/>
      <path id="Path_276" data-name="Path 276" d="M753.356,861a2.17,2.17,0,0,1-1.685-3.533,2.183,2.183,0,0,1,1.381-.785l3.316-.473a2.17,2.17,0,0,1,.611,4.3l-3.312.474a2.386,2.386,0,0,1-.311.022" transform="translate(-547.972 -624.568)"/>
      <path id="Path_277" data-name="Path 277" d="M761.124,927h-4.259a2.17,2.17,0,0,1,0-4.339h4.259a2.17,2.17,0,0,1,0,4.339" transform="translate(-550.53 -673.056)"/>
      <path id="Path_278" data-name="Path 278" d="M759.981,992.2a2.174,2.174,0,0,1-1.088-4.123,2.115,2.115,0,0,1,.82-.216l3.789-.471a2.169,2.169,0,0,1,.535,4.3l-3.785.476a2.277,2.277,0,0,1-.271.032" transform="translate(-552.703 -720.267)"/>
      <path id="Path_279" data-name="Path 279" d="M109.519,1205.661h-.069a2.223,2.223,0,0,1-.825-.192,2.17,2.17,0,0,1-1.275-2.048c.058-1.9-2.947-3.368-4.744-4.074-19.972-7.848-39.77-10.954-64.225-10.058a2.171,2.171,0,0,1-.159-4.339c25.066-.917,45.418,2.278,65.972,10.356,6.327,2.489,7.567,5.857,7.495,8.251a2.173,2.173,0,0,1-2.169,2.1" transform="translate(-26.356 -864.278)"/>
      <path id="Path_280" data-name="Path 280" d="M914.624,1019.755a2.169,2.169,0,0,1-1.808-3.352c14.122-21.693,29.071-33.369,51.722-47.361a2.17,2.17,0,1,1,2.283,3.69c-22.124,13.659-36.708,25.045-50.375,46.041a2.17,2.17,0,0,1-1.822.982" transform="translate(-665.619 -706.653)"/>
      <path id="Path_281" data-name="Path 281" d="M19.19,1213.7s-13.9-9.038-10.684-15.471,13.164-4.742,13.164-4.742Z" transform="translate(-5.853 -870.474)"/>
      <path id="Path_282" data-name="Path 282" d="M13.338,1209.995a2.188,2.188,0,0,1-1.182-.362C10.569,1208.6-3.253,1199.3.713,1191.374c3.887-7.778,15-5.992,15.467-5.911a2.168,2.168,0,0,1,1.808,2.4l-2.476,20.214a2.173,2.173,0,0,1-1.237,1.7,2.241,2.241,0,0,1-.936.214m-.4-20.414c-2.683,0-6.75.563-8.341,3.741-1.294,2.6,2.806,7.231,7.043,10.591l1.754-14.33Z" transform="translate(0 -864.594)"/>
      <path id="Path_283" data-name="Path 283" d="M923.548,1432.362a2.167,2.167,0,0,1-1.2-.363,10.968,10.968,0,0,1-3.109-2.892,6,6,0,0,1-.886-5.137,2.164,2.164,0,0,1,.4-.763,2.211,2.211,0,0,1,.665-.549,2.17,2.17,0,0,1,3.064,2.638,1.773,1.773,0,0,0,.344,1.374,7.115,7.115,0,0,0,1.934,1.707,2.169,2.169,0,0,1-1.208,3.977Z" transform="translate(-669.742 -1037.607)"/>
      <path id="Path_284" data-name="Path 284" d="M1108.943,981.438s6.947-8.746,3.089-11.016-10.042,2.849-10.042,2.849Z" transform="translate(-803.873 -707.473)" fill="#3a3a3a"/>
      <path id="Path_285" data-name="Path 285" d="M1103.057,977.752a2.152,2.152,0,0,1-.909-.2,2.177,2.177,0,0,1-.741-.56l-6.966-8.167a2.161,2.161,0,0,1-.511-1.6,2.126,2.126,0,0,1,.241-.82,2.172,2.172,0,0,1,.538-.665c.755-.625,7.521-6.008,12.539-3.046a4.429,4.429,0,0,1,1.415,1.3,4.383,4.383,0,0,1,.728,1.777c.763,4.1-3.728,10.015-4.634,11.159a2.178,2.178,0,0,1-.739.592,2.137,2.137,0,0,1-.922.225Zm-3.771-9.931,3.614,4.239c1.653-2.581,2.565-4.988,2.191-5.592l-.051-.032c-1.377-.814-3.874.23-5.754,1.385" transform="translate(-797.987 -701.618)" fill="#3a3a3a"/>
      <path id="Path_286" data-name="Path 286" d="M1112.448,1465.629H958.711a2.17,2.17,0,0,1,0-4.339h153.738a2.17,2.17,0,0,1,0,4.339" transform="translate(-697.771 -1065.972)"/>
      <path id="Path_287" data-name="Path 287" d="M659.286,377.215a2.169,2.169,0,0,1-1.88-3.254,10.8,10.8,0,0,1,3.854-3.9,2.17,2.17,0,1,1,2.209,3.735,6.463,6.463,0,0,0-2.3,2.328,2.169,2.169,0,0,1-1.88,1.092" transform="translate(-479.348 -269.729)"/>
      <path id="Path_288" data-name="Path 288" d="M715.136,354.725a2.169,2.169,0,0,1-.6-4.255,8.411,8.411,0,0,1,3.189-.275,2.169,2.169,0,1,1-.466,4.313,4.031,4.031,0,0,0-1.526.134,2.153,2.153,0,0,1-.6.083" transform="translate(-520.089 -255.424)"/>
      <path id="Path_289" data-name="Path 289" d="M747.94,386.175a3.427,3.427,0,1,1,.311-.015,2.977,2.977,0,0,1-.311.015" transform="translate(-543.131 -276.751)"/>
      <path id="Path_290" data-name="Path 290" d="M686.733,408.912a3.454,3.454,0,1,1,.314-.014,2.98,2.98,0,0,1-.314.014" transform="translate(-498.457 -293.341)"/>
      <path id="Path_291" data-name="Path 291" d="M1126.294,168.116a2.17,2.17,0,0,1-.081-4.338c4.136-.156,8.343-.463,12.5-.922,1.756-.2,3.531-.416,5.281-.665a2.169,2.169,0,0,1,.606,4.3c-1.807.253-3.614.484-5.421.683-4.263.47-8.573.788-12.815.944Zm-21.664-.6h-.206a156.769,156.769,0,0,1-18.114-2.769,2.182,2.182,0,0,1-.779-.336,2.23,2.23,0,0,1-.59-.608,2.174,2.174,0,0,1-.3-1.634,2.17,2.17,0,0,1,2.578-1.667,151.24,151.24,0,0,0,17.606,2.693,2.172,2.172,0,0,1-.2,4.339Zm60.9-5.4a2.169,2.169,0,0,1-.574-4.263,156.628,156.628,0,0,0,16.892-5.687,2.17,2.17,0,1,1,1.618,4.028,161.616,161.616,0,0,1-17.354,5.843,2.14,2.14,0,0,1-.582.08m-99.538-3.525a2.174,2.174,0,0,1-.787-.148,117.642,117.642,0,0,1-16.591-7.954,2.188,2.188,0,0,1-.687-.545,2.177,2.177,0,0,1-.49-1.646,2.161,2.161,0,0,1,.86-1.486,2.185,2.185,0,0,1,.8-.37,2.169,2.169,0,0,1,1.691.3,113.04,113.04,0,0,0,15.977,7.658,2.169,2.169,0,0,1-.768,4.194m136.11-11.808a2.168,2.168,0,0,1-1.106-4.035,121.543,121.543,0,0,0,14.587-10.1,2.168,2.168,0,0,1,3.052.322,2.194,2.194,0,0,1,.4.749,2.172,2.172,0,0,1,.076.843,2.173,2.173,0,0,1-.793,1.459,126.169,126.169,0,0,1-15.109,10.46,2.17,2.17,0,0,1-1.1.315Zm-169.75-8.909a2.166,2.166,0,0,1-1.5-.6,74.548,74.548,0,0,1-11.776-14.35,2.172,2.172,0,0,1,.049-2.434,2.164,2.164,0,0,1,1.426-.888,2.171,2.171,0,0,1,1.631.393,2.212,2.212,0,0,1,.576.633,70.044,70.044,0,0,0,11.094,13.507,2.169,2.169,0,0,1-1.5,3.738m199.936-16.649a2.17,2.17,0,0,1-2.156-2.416,2.2,2.2,0,0,1,.463-1.109,77.1,77.1,0,0,0,9.4-14.824,2.16,2.16,0,0,1,.506-.678,2.17,2.17,0,0,1,1.566-.554,2.165,2.165,0,0,1,.82.209,2.168,2.168,0,0,1,1.112,1.234,2.149,2.149,0,0,1,.119.838,2.112,2.112,0,0,1-.208.821A81.529,81.529,0,0,1,1234,120.407a2.164,2.164,0,0,1-1.723.824Zm-219.368-17.3a2.167,2.167,0,0,1-2.132-1.739c-.314-1.62-.568-3.254-.749-4.91a59.086,59.086,0,0,1-.36-6.49,59.941,59.941,0,0,1,.444-7.271,2.16,2.16,0,0,1,.26-.812,2.12,2.12,0,0,1,.552-.65,2.168,2.168,0,0,1,2.419-.184,2.167,2.167,0,0,1,1.077,2.175,55.259,55.259,0,0,0-.084,12.755c.17,1.522.406,3.051.7,4.552a2.172,2.172,0,0,1-1.71,2.531,2.089,2.089,0,0,1-.414.043m234.953-18.67h-.224a2.17,2.17,0,0,1-.809-.249,2.144,2.144,0,0,1-.652-.539,2.154,2.154,0,0,1-.476-1.591,54.946,54.946,0,0,0-.977-17.282,2.169,2.169,0,0,1,4.236-.925,59.074,59.074,0,0,1,1.363,12.618,59.9,59.9,0,0,1-.306,6.031,2.169,2.169,0,0,1-2.156,1.938m-9.4-37.818a2.167,2.167,0,0,1-1.028-.265,2.2,2.2,0,0,1-.779-.722,71.131,71.131,0,0,0-11.34-13.319,2.16,2.16,0,0,1-.744-1.521,2.142,2.142,0,0,1,.127-.854,2.161,2.161,0,0,1,1.152-1.24,2.168,2.168,0,0,1,2.413.438,75.387,75.387,0,0,1,12.011,14.147,2.185,2.185,0,0,1,.349,1.093,2.171,2.171,0,0,1-2.156,2.258Zm-29.2-26.44a2.177,2.177,0,0,1-1.085-.282,114.835,114.835,0,0,0-16.058-7.495,2.164,2.164,0,0,1-.744-.437,2.181,2.181,0,0,1-.72-1.53,2.171,2.171,0,0,1,3-2.09,119.187,119.187,0,0,1,16.694,7.777,2.169,2.169,0,0,1-1.085,4.057m-133.316-5.441a2.17,2.17,0,0,1-.793-4.187,142.532,142.532,0,0,1,17.571-5.337,2.167,2.167,0,0,1,2.37,3.234,2.143,2.143,0,0,1-.571.624,2.166,2.166,0,0,1-.768.358,139.058,139.058,0,0,0-17.016,5.159,2.184,2.184,0,0,1-.792.148m96.129-8.189a2.018,2.018,0,0,1-.441-.047,152.71,152.71,0,0,0-17.63-2.556,2.173,2.173,0,0,1-2.061-2.348,2.18,2.18,0,0,1,.243-.831,2.146,2.146,0,0,1,.549-.67,2.174,2.174,0,0,1,1.631-.471,157.17,157.17,0,0,1,18.131,2.628,2.169,2.169,0,0,1-.433,4.3ZM1114.553,6.1a2.169,2.169,0,0,1-.325-4.313c2.4-.361,4.634-.665,6.62-.886,3.858-.427,7.759-.723,11.6-.893a2.172,2.172,0,0,1,1.564.568,2.135,2.135,0,0,1,.5.683,2.168,2.168,0,0,1,.2.823,2.2,2.2,0,0,1-.13.838,2.162,2.162,0,0,1-1.123,1.226,2.152,2.152,0,0,1-.823.2c-3.744.166-7.548.459-11.313.875-1.926.213-4.1.5-6.441.861a2.061,2.061,0,0,1-.33.018" transform="translate(-736.535 -0.002)"/>
    </g>
  </g>
</svg>
