<svg xmlns="http://www.w3.org/2000/svg" xmlns:xlink="http://www.w3.org/1999/xlink" width="493.335" height="424.5" viewBox="0 0 493.335 424.5">
  <defs>
    <clipPath id="clip-path">
      <rect id="Rectangle_10" data-name="Rectangle 10" width="493.335" height="424.5" transform="translate(0 0)"/>
    </clipPath>
  </defs>
  <g id="Group_8" data-name="Group 8" transform="translate(0 0.001)">
    <g id="Group_7" data-name="Group 7" transform="translate(0 -0.001)" clip-path="url(#clip-path)">
      <path id="Path_90" data-name="Path 90" d="M18.435,983.841a2.11,2.11,0,0,1-.706-.121C4.194,979.012-.36,962.648,4.568,936.378c3.06-16.31,11.659-31.052,19.449-43.59,1.639-2.633,3.886-6.237,7.628-7.828a10.292,10.292,0,0,1,9.4.859,14.542,14.542,0,0,1,6.96,10.6c.629,5.883-1.795,12.095-7.4,18.986A123.517,123.517,0,0,0,31.108,928.8a2.111,2.111,0,0,1-1.277,1.057,2.087,2.087,0,0,1-.843.075,2.146,2.146,0,0,1-.805-.259,2.12,2.12,0,0,1-.763-2.956,130.74,130.74,0,0,1,9.892-13.985c4.858-5.975,6.978-11.161,6.476-15.86a10.32,10.32,0,0,0-4.893-7.393,6.269,6.269,0,0,0-5.6-.608c-2.307.977-3.943,3.374-5.681,6.165-7.6,12.236-15.951,26.572-18.87,42.17-3.126,16.67-3.865,37.583,10.391,42.538a2.119,2.119,0,0,1-.707,4.123Z" transform="translate(-1.878 -629.456)"/>
      <path id="Path_91" data-name="Path 91" d="M43.533,1049.516a2.12,2.12,0,0,1-1.413-3.7,49.616,49.616,0,0,1,14.485-9.032c1.194-.484,2.416-.925,3.6-1.351,3.512-1.271,6.833-2.475,9.426-4.667a14.009,14.009,0,0,0,3.847-15.454c-.908-2.282-2.872-4.9-5.653-5.416-3.081-.565-6.307,1.5-9.334,3.829a194.361,194.361,0,0,0-16.842,14.552,2.125,2.125,0,0,1-1.509.6,2.12,2.12,0,0,1-1.914-2.962,2.139,2.139,0,0,1,.47-.683,198.7,198.7,0,0,1,17.213-14.869c3.8-2.918,7.97-5.506,12.683-4.636,3.752.706,7.137,3.763,8.832,8.015A18.362,18.362,0,0,1,72.384,1034c-3.18,2.7-7.02,4.085-10.733,5.425-1.145.415-2.328.841-3.448,1.294a45.4,45.4,0,0,0-13.263,8.263,2.128,2.128,0,0,1-1.406.539" transform="translate(-27.089 -715.852)"/>
      <path id="Path_92" data-name="Path 92" d="M71.381,939.666a10.933,10.933,0,0,1-7.8-3.077,2.118,2.118,0,0,1-.061-3.048,2.117,2.117,0,0,1,2.36-.444,2.126,2.126,0,0,1,.689.49,7.509,7.509,0,0,0,10.924-1.161,2.1,2.1,0,0,1,.575-.6,2.123,2.123,0,0,1,1.6-.349,2.052,2.052,0,0,1,.775.308,2.113,2.113,0,0,1,.921,1.351,2.125,2.125,0,0,1-.315,1.6,11.174,11.174,0,0,1-8.317,4.86,11.745,11.745,0,0,1-1.35.069" transform="translate(-44.779 -663.087)"/>
      <path id="Path_93" data-name="Path 93" d="M104.3,1035.273h-.24a9.386,9.386,0,0,1-6.08-15.431,2.124,2.124,0,0,1,1.453-.784,2.166,2.166,0,0,1,.837.089,2.125,2.125,0,0,1,1.256,1.072,2.123,2.123,0,0,1-.32,2.371,5.15,5.15,0,0,0,3.335,8.453,2.124,2.124,0,0,1-.24,4.241Z" transform="translate(-68.145 -725.458)"/>
      <path id="Path_94" data-name="Path 94" d="M22.7,865.437a1.963,1.963,0,0,1-.466-.058,2.117,2.117,0,0,1-1.59-2.538c3.484-15.192,7.324-34.86,6.063-52.095v-.207c-.17-2.3-.354-4.909.915-7.289,2.289-4.275,7.85-5.053,12.047-3.976,7.359,1.9,15.238,11.132,15.238,21.861a2.12,2.12,0,1,1-4.239,0c0-8.634-6.36-16.286-12.055-17.756-2.731-.706-6.1-.285-7.257,1.873-.707,1.294-.562,3.08-.424,4.97v.213c1.3,17.8-2.607,37.862-6.161,53.348a2.121,2.121,0,0,1-2.071,1.654" transform="translate(-14.659 -568.691)"/>
      <path id="Path_95" data-name="Path 95" d="M45.106,858.766a2.12,2.12,0,0,1-1.258-3.826,18.748,18.748,0,0,0,6.921-10.153,2.12,2.12,0,1,1,4.1,1.089,22.738,22.738,0,0,1-8.511,12.478,2.08,2.08,0,0,1-1.251.412" transform="translate(-30.601 -600.28)"/>
      <path id="Path_96" data-name="Path 96" d="M589.108,491.376a2.12,2.12,0,0,1-1.572-3.533,349.524,349.524,0,0,1,70.79-59.421,2.121,2.121,0,0,1,2.293,3.568,345.929,345.929,0,0,0-69.953,58.693,2.12,2.12,0,0,1-1.558.693" transform="translate(-378.711 658.977) rotate(-77)"/>
      <path id="Path_97" data-name="Path 97" d="M568.5,525.592a2.1,2.1,0,0,1-1.191-.353,2.12,2.12,0,0,1-.558-2.943,244.666,244.666,0,0,1,15.545-20.424,2.121,2.121,0,1,1,3.236,2.742,240.169,240.169,0,0,0-15.287,20.067,2.121,2.121,0,0,1-1.745.912" transform="translate(-426.072 632.981) rotate(-77)"/>
      <path id="Path_98" data-name="Path 98" d="M440.579,1224.009a2.1,2.1,0,0,1-1.207-.372,2.119,2.119,0,0,1-.206-3.333A277.959,277.959,0,0,1,523.6,1168.82a2.122,2.122,0,0,1,1.53,3.958,273.585,273.585,0,0,0-83.134,50.7,2.13,2.13,0,0,1-1.42.533" transform="translate(-312.133 -831.979)"/>
      <path id="Path_99" data-name="Path 99" d="M507.905,1328.665a2.119,2.119,0,0,1-1.06-3.953,103.956,103.956,0,0,1,24.289-10.285,2.126,2.126,0,0,1,.84-.089,2.1,2.1,0,0,1,.808.245,2.123,2.123,0,0,1,.258,3.567,2.1,2.1,0,0,1-.764.357,99.727,99.727,0,0,0-23.318,9.893,2.1,2.1,0,0,1-1.053.265" transform="translate(-360.07 -935.666)"/>
      <path id="Path_100" data-name="Path 100" d="M643.537,668.777a2.12,2.12,0,0,1-1.081-3.943L663.082,652.6a2.12,2.12,0,1,1,2.162,3.646l-20.626,12.231a2.124,2.124,0,0,1-1.081.3" transform="translate(-542.945 660.823) rotate(-77)"/>
      <path id="Path_101" data-name="Path 101" d="M211.138,395.524c-9.387-5-13.966-16.916-11.726-27.313s10.44-18.933,20.226-23.1c10.846-4.618,24.575-4.239,33.464,3.5,19.159,16.7,7.822,41.421-12.245,48.1-8.451,2.827-16.125,11.9-19.728,19.212,0,0,1.869-5.554,2.067-6.773,1.332-8.2-8.468-11.712-12.058-13.623" transform="translate(-141.561 -243.548)" fill="#146ef5"/>
      <path id="Path_102" data-name="Path 102" d="M215.9,412.775a2.084,2.084,0,0,1-.806-.163,2.12,2.12,0,0,1-1.2-2.636c.873-2.593,1.88-5.787,1.986-6.437.844-5.2-4.144-8.083-9.324-10.6-.6-.29-1.162-.562-1.639-.816a25.188,25.188,0,0,1-11.185-12.687,28.786,28.786,0,0,1-1.615-16.958c2.268-10.507,10.493-19.933,21.466-24.6a39.753,39.753,0,0,1,18.47-3.049,29.579,29.579,0,0,1,17.216,6.9c8.479,7.38,12.04,16.919,10.048,26.851-2.24,11.182-11.274,20.936-23.014,24.844-7.854,2.615-15.1,11.231-18.5,18.135a2.12,2.12,0,0,1-1.9,1.219m13.224-73.8a36.037,36.037,0,0,0-13.881,2.826c-9.73,4.141-17,12.415-18.983,21.6-2.12,9.892,2.445,20.625,10.648,24.992.407.216.912.459,1.495.742,3.6,1.745,10.486,5.081,11.659,11.38,4.081-4.9,9.3-9.2,14.916-11.076,10.32-3.434,18.248-11.934,20.195-21.654,1.682-8.387-1.413-16.5-8.674-22.834-4.9-4.264-11.175-5.974-17.375-5.974" transform="translate(-136.336 -238.284)" fill="#146ef5"/>
      <path id="Path_103" data-name="Path 103" d="M881.113,516.9a2.12,2.12,0,0,1-1.809-3.227c23.394-38.41,42.478-83.65,50.628-102.969,2.011-4.77,3.339-7.921,4.022-9.3,8.352-16.852,20.156-18.018,26.448-17.192,5.984.774,11.726,4.074,13.915,7.706l19.286-4.547a2.12,2.12,0,0,1,.974,4.127l-21.014,4.946A2.123,2.123,0,0,1,971,394.81c-.352-1.8-4.878-5.589-11.135-6.4-5.177-.671-14.927.353-22.106,14.867-.625,1.261-2.005,4.533-3.918,9.062-8.185,19.407-27.353,64.851-50.911,103.517a2.121,2.121,0,0,1-1.812,1.043" transform="translate(-625.752 -273.384)"/>
      <path id="Path_104" data-name="Path 104" d="M1113.744,632.561a2.12,2.12,0,0,1,3.826,1.464c-.247,2.34,1.453,4.544,3.243,5.706,2.378,1.535,5.438,1.978,7.837,2.19a50.685,50.685,0,0,0,13.611-.627,2.122,2.122,0,0,1,.762,4.175,55.051,55.051,0,0,1-14.751.676,21.3,21.3,0,0,1-9.76-2.848c-3.516-2.271-5.543-6.085-5.171-9.723a2.12,2.12,0,0,1,.4-1.013" transform="translate(-792.553 -449.693)"/>
      <path id="Path_105" data-name="Path 105" d="M1324.04,642.123a2.173,2.173,0,0,1-.68-.115,2.118,2.118,0,0,1-1.331-2.685l12.5-37.145c.994-2.95,2.474-7.419,6.315-9.574,2.343-1.325,4.973-1.463,7.295-1.583.481-.025.957-.049,1.415-.081,3.215-.24,7.736-1.183,11.011-4.317,2.858-2.738,4-6.868,2.792-10.044a12.072,12.072,0,0,0-3.74-4.741,25.275,25.275,0,0,0-20.977-5.239,2.123,2.123,0,0,1-2.227-.857,2.13,2.13,0,0,1-.02-2.385,2.142,2.142,0,0,1,.6-.591,2.108,2.108,0,0,1,.778-.314,29.613,29.613,0,0,1,24.593,6.137,16.058,16.058,0,0,1,4.976,6.479c1.835,4.8.3,10.67-3.817,14.616-4.183,4.01-9.723,5.193-13.633,5.483-.5.039-1.014.063-1.524.092-2.034.1-3.953.205-5.422,1.035-2.23,1.265-3.345,4.144-4.388,7.239l-12.5,37.146a2.125,2.125,0,0,1-2.008,1.446" transform="translate(-941.069 -399.995)"/>
      <path id="Path_106" data-name="Path 106" d="M1392.462,627.262a9.455,9.455,0,0,1-3.388-.615,2.126,2.126,0,0,1-.717-.434,2.121,2.121,0,0,1,.594-3.508,2.115,2.115,0,0,1,1.642-.016,6.249,6.249,0,0,0,7.71-3.575,2.116,2.116,0,0,1,1.881-1.446,2.11,2.11,0,0,1,.827.114,2.112,2.112,0,0,1,1.219,1.093,2.118,2.118,0,0,1,.075,1.634,10.143,10.143,0,0,1-5.373,5.748,10.613,10.613,0,0,1-4.469,1" transform="translate(-987.878 -439.714)"/>
      <path id="Path_107" data-name="Path 107" d="M1285.643,381.462a2.12,2.12,0,0,1-1.719-3.788,114.983,114.983,0,0,1,50.77-19.753,2.12,2.12,0,1,1,.554,4.2,110.781,110.781,0,0,0-48.891,19.018,2.118,2.118,0,0,1-.714.32" transform="translate(-913.39 -254.789)"/>
      <path id="Path_108" data-name="Path 108" d="M1422.431,383a2.166,2.166,0,0,1-.716.055,148.787,148.787,0,0,0-80.291,15.223,2.123,2.123,0,0,1-2.382-.243,2.152,2.152,0,0,1-.523-.661,2.118,2.118,0,0,1-.222-.812,2.083,2.083,0,0,1,.108-.835,2.16,2.16,0,0,1,.427-.726,2.126,2.126,0,0,1,.675-.5,152.1,152.1,0,0,1,82.593-15.646,2.12,2.12,0,0,1,.291,4.173Z" transform="translate(-952.726 -269.234)"/>
      <path id="Path_109" data-name="Path 109" d="M1402.2,429.628a2.161,2.161,0,0,1-.519.061,171.171,171.171,0,0,0-70.836,14.971,2.12,2.12,0,0,1-1.741-3.867,175.426,175.426,0,0,1,72.6-15.344,2.12,2.12,0,0,1,.492,4.178" transform="translate(-945.296 -302.875)"/>
      <path id="Path_110" data-name="Path 110" d="M1408.873,469.385a2.13,2.13,0,0,1-.413.057,140.122,140.122,0,0,0-38.728,7.178,2.127,2.127,0,0,1-1.623-.115,2.126,2.126,0,0,1,.274-3.92,144.366,144.366,0,0,1,39.9-7.384,2.12,2.12,0,0,1,.591,4.176Z" transform="translate(-973.113 -331.175)"/>
      <path id="Path_111" data-name="Path 111" d="M1488.8,503.481a2.118,2.118,0,0,1-.735.049,204.593,204.593,0,0,0-84.7,8.491,2.125,2.125,0,0,1-1.3-4.047,208.9,208.9,0,0,1,86.468-8.668,2.12,2.12,0,0,1,.266,4.165Z" transform="translate(-997.071 -354.562)"/>
      <path id="Path_112" data-name="Path 112" d="M1513.361,549.711a2.132,2.132,0,0,1-.666.053,95.716,95.716,0,0,0-24.292,1.2,2.124,2.124,0,0,1-.747-4.182,100,100,0,0,1,25.369-1.243,2.12,2.12,0,0,1,.336,4.173" transform="translate(-1057.813 -388.148)"/>
      <path id="Path_113" data-name="Path 113" d="M1568.791,598.29a2.129,2.129,0,0,1-1.1-.034,137.74,137.74,0,0,0-50.681-5.434,2.121,2.121,0,1,1-.332-4.228,141.972,141.972,0,0,1,52.234,5.6,2.119,2.119,0,0,1-.095,4.085Z" transform="translate(-1078.327 -418.701)"/>
      <path id="Path_114" data-name="Path 114" d="M1557.131,639.056a2.122,2.122,0,0,1-1.059-.014,28.882,28.882,0,0,0-9.444-.969,2.1,2.1,0,0,1-.839-.087,2.149,2.149,0,0,1-.74-.408,2.106,2.106,0,0,1-.521-.664,2.115,2.115,0,0,1,.328-2.377,2.092,2.092,0,0,1,.679-.5,2.114,2.114,0,0,1,.822-.194,33.2,33.2,0,0,1,10.815,1.093,2.12,2.12,0,0,1-.054,4.108Z" transform="translate(-1099.384 -451.184)"/>
      <path id="Path_115" data-name="Path 115" d="M898.768,847.182a10.114,10.114,0,0,1-3.062-.444c-2.573-.8-4.437-2.61-6.278-4.546C879.75,832,871.306,817.15,866.261,801.443a2.1,2.1,0,0,1,.1-1.645,2.043,2.043,0,0,1,.516-.666,2.125,2.125,0,0,1,3.028.268,2.128,2.128,0,0,1,.389.746c4.86,15.123,12.953,29.381,22.21,39.125,1.5,1.576,2.861,2.921,4.469,3.423,1.743.547,3.835.107,6.183-.478,20.821-5.189,45.405-14.644,69.179-23.789,11.115-4.275,21.611-8.315,31.219-11.711a2.126,2.126,0,0,1,.827-.138,2.068,2.068,0,0,1,.818.2,2.121,2.121,0,0,1,1.224,2.048,2.115,2.115,0,0,1-.726,1.475,2.169,2.169,0,0,1-.732.415c-9.539,3.377-20.023,7.419-31.112,11.657-23.9,9.188-48.6,18.7-69.675,23.947a21.747,21.747,0,0,1-5.411.867" transform="translate(-616.602 -568.534)"/>
      <path id="Path_116" data-name="Path 116" d="M875.353,901.79a2.112,2.112,0,0,1-1.913-1.2l-9.058-18.879-18.372,6.952a2.1,2.1,0,0,1-.833.135,2.117,2.117,0,0,1-1.5-.709,2.152,2.152,0,0,1-.424-.729l-15.768-46.635a2.12,2.12,0,1,1,4.017-1.357l15.061,44.552,18.122-6.86a2.122,2.122,0,0,1,2.659,1.06l9.13,19c33.676-10.305,52.677-20.11,102.06-45.575a2.12,2.12,0,1,1,1.942,3.768C930,881.352,911.112,891.1,875.966,901.718a2,2,0,0,1-.614.072" transform="translate(-589.006 -596.516)"/>
      <path id="Path_117" data-name="Path 117" d="M569.073,803.684a2.119,2.119,0,0,1-2.031-2.746,2.128,2.128,0,0,1,.748-1.066c9.288-7.041,18.894-14.322,29.705-19.476,12.263-5.851,24.487-7.983,35.351-6.163.707.115,1.382.248,2.049.375a25.28,25.28,0,0,0,5.861.674c1.887-.086,4.356-.836,5.37-2.688a10.361,10.361,0,0,0,.706-1.876,16.248,16.248,0,0,1,.707-2.028,10.085,10.085,0,0,1,12.123-5.278,2.105,2.105,0,0,1,.738.406,2.136,2.136,0,0,1,.743,1.472,2.166,2.166,0,0,1-.112.836,2.128,2.128,0,0,1-.426.726,2.15,2.15,0,0,1-.677.5,2.116,2.116,0,0,1-1.648.063,5.8,5.8,0,0,0-6.868,2.99,14.569,14.569,0,0,0-.53,1.544,13.779,13.779,0,0,1-1.037,2.682c-1.58,2.878-4.9,4.7-8.9,4.886a29.284,29.284,0,0,1-6.85-.746c-.675-.133-1.307-.251-1.951-.354-12.637-2.12-24.826,1.991-32.825,5.808-10.422,4.973-19.852,12.118-28.97,19.032a2.111,2.111,0,0,1-1.279.423" transform="translate(-403.608 -543.123)"/>
      <path id="Path_118" data-name="Path 118" d="M1429.323,984.218a2.122,2.122,0,0,1-2.017-1.481,63.047,63.047,0,0,1-.279-38.269c.631-2.12,1.438-4.2,2.219-6.209,1.449-3.731,2.826-7.257,3.1-10.951.452-5.8-1.766-11.363-4.085-17.252-.847-2.141-1.723-4.353-2.472-6.575-3.149-9.5-3.78-19.556-4.4-29.28-.458-7.3-.936-14.837-2.472-21.991-.706-3.287-1.855-7.456-4.4-10.556-5.056-6.163-14.1-7.087-22.844-7.978l-1.415-.147c-13.492-1.412-22.109-6.292-24.912-14.132a28.566,28.566,0,0,1-1.276-8.277c-.081-1.527-.159-2.967-.375-4.376-.513-3.336-2.357-6.906-5.327-7.349a2.121,2.121,0,0,1,.631-4.195c5.451.824,8.194,6.384,8.885,10.9.248,1.61.334,3.227.418,4.788a25.033,25.033,0,0,0,1.034,7.067c2.8,7.836,13.166,10.5,21.36,11.351l1.389.141c9.156.934,19.528,1.994,25.693,9.507,3.12,3.8,4.451,8.6,5.264,12.365,1.616,7.462,2.12,15.171,2.573,22.61.6,9.458,1.213,19.234,4.186,28.217.706,2.118,1.55,4.258,2.377,6.358,2.411,6.076,4.9,12.365,4.371,19.142-.352,4.324-1.881,8.309-3.379,12.164-.749,1.93-1.524,3.921-2.12,5.886a58.981,58.981,0,0,0,.254,35.771,2.117,2.117,0,0,1,.075.985,2.11,2.11,0,0,1-1.135,1.553,2.127,2.127,0,0,1-.959.228Z" transform="translate(-965.738 -566.085)"/>
      <path id="Path_119" data-name="Path 119" d="M1314.678,998.391a2.386,2.386,0,0,1-.516-.063,2.124,2.124,0,0,1-1.305-.968,2.1,2.1,0,0,1-.279-.778,2.156,2.156,0,0,1,.04-.827,118.845,118.845,0,0,1,28.761-52.642,2.121,2.121,0,1,1,3.089,2.907,114.5,114.5,0,0,0-27.733,50.764,2.129,2.129,0,0,1-2.057,1.608" transform="translate(-934.404 -670.925)"/>
      <path id="Path_120" data-name="Path 120" d="M1257.13,1389.027a2.124,2.124,0,0,1-2.12-1.93c-.049-.547-.095-1.1-.141-1.654-.354-4.16-.677-8.093-2.337-11.533-1.593-3.31-5.3-6.448-9-5.75a2.121,2.121,0,1,1-.784-4.169c5.84-1.1,11.268,3.23,13.6,8.081,2,4.14,2.374,8.655,2.743,13.016l.135,1.631a2.118,2.118,0,0,1-1.922,2.3c-.057.006-.118.009-.179.009" transform="translate(-883.476 -970.897)"/>
      <path id="Path_121" data-name="Path 121" d="M1268.622,1353.574a2.119,2.119,0,0,1-2.12-1.927c-.19-2.048-.706-4.88-1.173-7.623-.5-2.826-1.011-5.745-1.216-7.966-.521-5.653-1.556-11.2-5.494-13.454a2.122,2.122,0,1,1,2.12-3.676c5.624,3.215,6.984,9.945,7.615,16.739.19,2.051.706,4.886,1.167,7.623.5,2.826,1.011,5.748,1.222,7.972a2.2,2.2,0,0,1-.086.821,2.123,2.123,0,0,1-1.037,1.25,2.115,2.115,0,0,1-.792.233Z" transform="translate(-895.251 -938.737)"/>
      <path id="Path_122" data-name="Path 122" d="M1301.124,1186.626a2.115,2.115,0,0,1-2.12-2.12v-6.546a2.119,2.119,0,1,1,4.238,0v6.546a2.115,2.115,0,0,1-2.118,2.12" transform="translate(-924.756 -837.077)"/>
      <path id="Path_123" data-name="Path 123" d="M1413.4,964.483a2.137,2.137,0,0,1-1.106-.311c-3.106-1.9-6.822-3.927-10.83-4.509-3.944-.57-7.655.461-9.919,2.76a2.12,2.12,0,0,1-3.022-2.973c3.209-3.261,8.274-4.751,13.552-3.982,4.768.706,8.96,2.959,12.434,5.085a2.122,2.122,0,0,1,.173,3.5,2.131,2.131,0,0,1-1.282.429" transform="translate(-988.051 -680.053)"/>
      <path id="Path_124" data-name="Path 124" d="M1396.023,982.352a2.135,2.135,0,0,1-1.06-.28,19.762,19.762,0,0,0-9.185-2.593,2.121,2.121,0,0,1,.124-4.241,24.052,24.052,0,0,1,11.178,3.149,2.121,2.121,0,0,1,.236,3.526,2.142,2.142,0,0,1-1.3.435Z" transform="translate(-985.066 -694.268)"/>
      <path id="Path_128" data-name="Path 128" d="M1087.544,213.821l-25.67-5.579a3.7,3.7,0,0,1-2.648-4.982l9.188-22.929a3.683,3.683,0,0,1,4.209-2.237l25.673,5.579a3.693,3.693,0,0,1,2.642,4.981l-9.188,22.929a3.693,3.693,0,0,1-4.206,2.237" transform="translate(-753.873 -126.725)" fill="#146ef5"/>
      <path id="Path_129" data-name="Path 129" d="M1083.083,210.752a5.809,5.809,0,0,1-1.247-.134l-25.67-5.579A5.809,5.809,0,0,1,1052,197.2l9.185-22.929a5.79,5.79,0,0,1,6.629-3.533l25.67,5.575a5.823,5.823,0,0,1,4.166,7.84l-9.185,22.933a5.8,5.8,0,0,1-5.385,3.667m-16.511-35.9a1.569,1.569,0,0,0-1.455.989l-9.185,22.929a1.575,1.575,0,0,0,.51,1.836,1.589,1.589,0,0,0,.617.284l25.67,5.579a1.573,1.573,0,0,0,1.8-.954l9.185-22.929a1.556,1.556,0,0,0,.112-.668,1.611,1.611,0,0,0-.182-.652,1.567,1.567,0,0,0-1.054-.8l-25.67-5.579a1.576,1.576,0,0,0-.343-.035" transform="translate(-748.621 -121.451)" fill="#146ef5"/>
      <path id="Path_130" data-name="Path 130" d="M926.969,1245.283a8.741,8.741,0,0,1-3.331-.663l-63.423-26.3a8.678,8.678,0,0,1-4.52-11.694l16.845-36a2.12,2.12,0,0,1,2.731-1.06l75.549,31.32a2.086,2.086,0,0,1,.706.473,2.119,2.119,0,0,1,.458.717,2.143,2.143,0,0,1,.144.839,2.165,2.165,0,0,1-.2.827l-17.1,36.54a8.663,8.663,0,0,1-7.865,5m-65.126-30.873,63.42,26.292a4.432,4.432,0,0,0,5.716-2.215l16.171-34.518-71.628-29.677-16,34.14a4.437,4.437,0,0,0,2.322,5.981Z" transform="translate(-608.583 -832.497)" fill="#146ef5"/>
      <path id="Path_131" data-name="Path 131" d="M948.9,1209.954a2.12,2.12,0,0,1-1.636-.769l-26.5-32.213a2.127,2.127,0,0,1-.5-1.559,2.124,2.124,0,0,1,.764-1.449,2.112,2.112,0,0,1,.735-.395,2.143,2.143,0,0,1,.833-.078,2.114,2.114,0,0,1,.8.248,2.17,2.17,0,0,1,.64.539l25.823,31.4,45.065-2.072a2.139,2.139,0,0,1,.818.127,2.117,2.117,0,0,1,1.2,1.095,2.12,2.12,0,0,1-1.02,2.82,2.118,2.118,0,0,1-.8.2L949,1209.969Z" transform="translate(-655.132 -835.397)" fill="#146ef5"/>
      <path id="Path_132" data-name="Path 132" d="M1058.875,1339.47a2.124,2.124,0,0,1-1.824-1.034l-15.333-25.791a2.129,2.129,0,0,1-.271-1.628,2.036,2.036,0,0,1,.354-.763,2.088,2.088,0,0,1,.622-.568,2.121,2.121,0,0,1,2.391.153,2.163,2.163,0,0,1,.547.64l15.333,25.791a2.121,2.121,0,0,1-1.821,3.207Z" transform="translate(-741.361 -932.15)" fill="#146ef5"/>
      <path id="Path_133" data-name="Path 133" d="M877.2,1295.5a2.12,2.12,0,0,1-.412-4.2l30.052-5.892a2.12,2.12,0,0,1,2.175.9,2.13,2.13,0,0,1,.317.766,2.115,2.115,0,0,1-.317,1.59,2.147,2.147,0,0,1-.585.588,2.112,2.112,0,0,1-.763.314l-30.058,5.9a2.134,2.134,0,0,1-.409.035" transform="translate(-622.958 -915.049)" fill="#146ef5"/>
      <path id="Path_134" data-name="Path 134" d="M47.2,1431.037h208l-2.413-3.578c-4.593-6.8-10.673-10.6-17-10.6H41.225s-6.547,14.177,5.974,14.177" transform="translate(-28.13 -1008.658)"/>
      <path id="Path_135" data-name="Path 135" d="M249.951,1427.911h-208c-4,0-6.836-1.276-8.447-3.794-3.18-4.973.159-12.547.548-13.394a2.118,2.118,0,0,1,1.925-1.233H230.533c7.087,0,13.75,4.1,18.76,11.539l2.413,3.578a2.121,2.121,0,0,1-.672,3.005,2.149,2.149,0,0,1-1.094.3ZM37.417,1413.728c-.777,2.215-1.675,6.007-.353,8.127.784,1.219,2.424,1.832,4.875,1.832H245.973l-.187-.274c-4.2-6.234-9.613-9.669-15.245-9.669Z" transform="translate(-22.885 -1003.411)"/>
      <path id="Path_136" data-name="Path 136" d="M142.8,973.327H40.211a2.118,2.118,0,0,1-2.092-2.472L51.424,888a2.115,2.115,0,0,1,.269-.8,2.088,2.088,0,0,1,.561-.634,2.057,2.057,0,0,1,.764-.363,2.147,2.147,0,0,1,.846-.037,2.121,2.121,0,0,1,.792.3,2.143,2.143,0,0,1,.612.585,2.12,2.12,0,0,1,.338,1.625L42.7,969.072h98.4l39.343-168.84a4.178,4.178,0,0,0-4.081-5.125H75.586A5.788,5.788,0,0,0,69.849,800L66.6,820.238a2.12,2.12,0,0,1-4.186-.677l3.254-20.245a10.007,10.007,0,0,1,9.921-8.456H176.364a8.415,8.415,0,0,1,8.2,10.326l-39.711,170.5a2.118,2.118,0,0,1-2.049,1.639" transform="translate(-27.116 -563.01)"/>
      <path id="Path_137" data-name="Path 137" d="M255.487,1057.632a5.259,5.259,0,0,1-.706-.046c-3.621-.5-5.932-4.722-5.264-9.631s4.028-8.367,7.645-7.871,5.932,4.725,5.264,9.631c-.608,4.592-3.589,7.917-6.939,7.917m1.018-13.354c-.929,0-2.406,1.576-2.77,4.238-.378,2.777.706,4.731,1.636,4.855s2.494-1.461,2.872-4.238-.706-4.731-1.632-4.857Z" transform="translate(-177.548 -740.398)"/>
      <path id="Path_138" data-name="Path 138" d="M935.407,1011.591a4.441,4.441,0,1,1,3.135-1.3,4.419,4.419,0,0,1-3.135,1.3m0-4.636a.183.183,0,0,0-.109.035.176.176,0,0,0-.075.089.213.213,0,0,0-.011.112.2.2,0,0,0,.055.1.2.2,0,0,0,.1.055.2.2,0,0,0,.115-.012.2.2,0,0,0,.089-.072.211.211,0,0,0,.032-.109.2.2,0,0,0-.058-.141.194.194,0,0,0-.138-.058" transform="translate(-662.754 -713.83)"/>
      <path id="Path_139" data-name="Path 139" d="M1399.117,1138.865a6.226,6.226,0,0,1,9.643,6.684,6.23,6.23,0,0,0,5,7.773,6.226,6.226,0,0,1,2.092,11.544,6.227,6.227,0,0,0-1.959,9.035,6.226,6.226,0,0,1-6.684,9.643,6.22,6.22,0,0,0-7.773,5,6.227,6.227,0,0,1-11.547,2.092,6.224,6.224,0,0,0-9.032-1.956,6.228,6.228,0,0,1-9.646-6.684,6.219,6.219,0,0,0-5-7.773,6.229,6.229,0,0,1-2.092-11.547,6.229,6.229,0,0,0,1.962-9.032,6.226,6.226,0,0,1,6.684-9.643,6.22,6.22,0,0,0,7.773-5,6.226,6.226,0,0,1,11.544-2.092,6.227,6.227,0,0,0,9.035,1.956" transform="translate(-967.46 -807.131)" fill="#146ef5"/>
      <path id="Path_140" data-name="Path 140" d="M1388.028,1190.665a8.245,8.245,0,0,1-7.194-4.2,4.106,4.106,0,0,0-4.394-1.979,4.151,4.151,0,0,0-1.562.686,8.348,8.348,0,0,1-12.927-8.96,4.1,4.1,0,0,0-3.3-5.125,8.344,8.344,0,0,1-2.8-15.474,4.142,4.142,0,0,0,1.271-1.138,4.122,4.122,0,0,0,.706-3.258,4.13,4.13,0,0,0-.686-1.561,8.344,8.344,0,0,1,8.96-12.927,4.109,4.109,0,0,0,5.125-3.3,8.347,8.347,0,0,1,15.477-2.806,4.147,4.147,0,0,0,1.138,1.271,4.077,4.077,0,0,0,1.553.7,4.1,4.1,0,0,0,3.267-.677,8.348,8.348,0,0,1,12.927,8.96,4.1,4.1,0,0,0,1.711,4.506,4.045,4.045,0,0,0,1.587.619,8.345,8.345,0,0,1,2.8,15.474,4.115,4.115,0,0,0-1.97,2.694,4.1,4.1,0,0,0-.006,1.706,4.154,4.154,0,0,0,.686,1.561,8.346,8.346,0,0,1-8.96,12.924,4.1,4.1,0,0,0-4.506,1.711,4.064,4.064,0,0,0-.619,1.588,8.259,8.259,0,0,1-6.747,6.865,9.176,9.176,0,0,1-1.539.138m-10.749-10.5a8.349,8.349,0,0,1,7.234,4.195,4.106,4.106,0,0,0,7.615-1.383,8.349,8.349,0,0,1,10.418-6.713,4.107,4.107,0,0,0,4.408-6.358,8.345,8.345,0,0,1,2.627-12.112,4.1,4.1,0,0,0-1.38-7.612,8.351,8.351,0,0,1-6.713-10.421,4.1,4.1,0,0,0-6.358-4.405,8.341,8.341,0,0,1-12.106-2.625,4.105,4.105,0,0,0-7.615,1.377,8.338,8.338,0,0,1-1.256,3.23,8.351,8.351,0,0,1-9.162,3.483,4.11,4.11,0,0,0-4.445,1.628,4.109,4.109,0,0,0,.035,4.731,8.349,8.349,0,0,1-2.625,12.112,4.105,4.105,0,0,0,1.377,7.615,8.349,8.349,0,0,1,6.713,10.418,4.107,4.107,0,0,0,6.361,4.411,8.327,8.327,0,0,1,4.872-1.57" transform="translate(-962.24 -801.904)" fill="#146ef5"/>
      <path id="Path_141" data-name="Path 141" d="M8.228,1138.82s-6.094,43.051,15.231,48.494l3.886-24.247s-13.835,6.079-19.117-24.247" transform="translate(-5.284 -810.722)"/>
      <path id="Path_142" data-name="Path 142" d="M18.175,1184.194a2.031,2.031,0,0,1-.526-.069c-22.9-5.84-17.061-48.989-16.785-50.841a2.121,2.121,0,0,1,2.067-1.824h.032a2.12,2.12,0,0,1,2.088,1.766c2.583,14.84,7.119,20.139,10.465,22a6.961,6.961,0,0,0,5.737.663,2.111,2.111,0,0,1,2.922,2.285l-3.886,24.247a2.116,2.116,0,0,1-2.092,1.766Zm-13.909-37.4c0,11.734,1.95,27.883,12.21,32.452l3.021-18.816a11.7,11.7,0,0,1-5.9-1.415q-5.771-3.107-9.331-12.221" transform="translate(0 -805.483)"/>
      <path id="Path_143" data-name="Path 143" d="M1268.852,531.921l-.178.057a2.119,2.119,0,0,1-2.532-1.6,10.731,10.731,0,0,0-2.908-5.228,2.131,2.131,0,0,1-.464-.684,2.1,2.1,0,0,1-.168-.81,2.124,2.124,0,0,1,.608-1.5,2.122,2.122,0,0,1,3-.025,15.009,15.009,0,0,1,4.068,7.324,2.12,2.12,0,0,1-1.424,2.473" transform="translate(-898.842 -371.266)"/>
      <path id="Path_144" data-name="Path 144" d="M1191.711,491.579a2.241,2.241,0,0,1-.393.085l-6.568.779a2.12,2.12,0,0,1-.507-4.207l6.564-.792a2.12,2.12,0,0,1,.9,4.126Z" transform="translate(-841.774 -346.997)"/>
      <path id="Path_145" data-name="Path 145" d="M1183.715,524.809a3.382,3.382,0,0,1-1.61.11,3.419,3.419,0,1,1,1.61-.11" transform="translate(-839.513 -368.854)"/>
      <path id="Path_146" data-name="Path 146" d="M1233.177,551.243a3.409,3.409,0,1,1,1.548-1.014,3.422,3.422,0,0,1-1.548,1.014" transform="translate(-874.72 -387.667)"/>
      <path id="Path_148" data-name="Path 148" d="M578.78,1445.291H544.39a2.12,2.12,0,0,1,0-4.241h34.39a2.12,2.12,0,0,1,0,4.241" transform="translate(-386.04 -1025.879)" fill="#fff"/>
      <path id="Path_149" data-name="Path 149" d="M713.607,1445.291H706.69a2.12,2.12,0,0,1,0-4.241h6.918a2.12,2.12,0,0,1,0,4.241" transform="translate(-501.581 -1025.879)" fill="#fff"/>
      <path id="Path_150" data-name="Path 150" d="M1438.244,1207.24l-11.45-16.634-1.294-1.881-8.19-11.9-.678-.986h-10.064l2.454,3.567,10.89,15.823,1.295,1.879,8.75,12.713.678.985H1440.7Zm-6.413,1.29-9.091-13.208-1.294-1.88-10.549-15.326h4.538l8.531,12.395,1.294,1.88,11.108,16.139Z" transform="translate(-1001.331 -837.077)" fill="#fff"/>
      <path id="Path_151" data-name="Path 151" d="M1421.349,1236.938l1.295,1.88-1.534,1.786-11.775,13.7h-2.9l13.384-15.578Z" transform="translate(-1001.233 -880.572)" fill="#fff"/>
      <path id="Path_152" data-name="Path 152" d="M1482.479,1175.84l-12.693,14.766-1.535,1.785-1.294-1.88,1.534-1.786,8.6-10.008,2.485-2.877Z" transform="translate(-1044.322 -837.077)" fill="#fff"/>
      <path id="Path_153" data-name="Path 153" d="M585.943,37.712A37.713,37.713,0,1,1,548.231,0a37.713,37.713,0,0,1,37.713,37.713" transform="translate(-363.436 0.001)" fill="#146ef5"/>
      <path id="Line_1" data-name="Line 1" d="M5.048,16.687a3.059,3.059,0,0,1-2.868-2L-2.867,1.062A3.057,3.057,0,0,1-1.062-2.867,3.057,3.057,0,0,1,2.867-1.062L7.915,12.567a3.06,3.06,0,0,1-2.867,4.12Z" transform="translate(170.448 42.026)" fill="#fff"/>
      <path id="Path_154" data-name="Path 154" d="M609.9,151.574a3.056,3.056,0,0,1,1.849.622l6.734,5.11a3.057,3.057,0,0,1,.129,4.768l-7.239,6.139a3.058,3.058,0,0,1-5.032-2.469l.5-11.249a3.058,3.058,0,0,1,3.054-2.92Z" transform="translate(-433.824 -110.081)" fill="#fff"/>
      <path id="Path_155" data-name="Path 155" d="M594.438,58.119h0a4.576,4.576,0,0,1,3.578,1.753,4.507,4.507,0,0,1,.823,3.891l-9.013,36.05a6.089,6.089,0,0,1-9.592,3.375L563.561,90.536a3.058,3.058,0,0,1-1.164-2.962l-1.038.624a3.057,3.057,0,0,1-2.553.276l-11.875-4.013a4.541,4.541,0,0,1-.159-8.547l46.048-17.5A6.757,6.757,0,0,1,594.438,58.119Zm-10.508,40.2L592.178,65.2l-3.855,1.465a3.059,3.059,0,0,1,.518,4.966l-18.6,16.3Zm-24.507-16.09,20.748-12.463L553.045,80.072Z" transform="translate(-389.338 -43.551)" fill="#fff"/>
      <path id="Path_156" data-name="Path 156" d="M278.343,391.538a4.912,4.912,0,0,0-8.279-3.575,21.258,21.258,0,0,0-11.343-4.2l2.514-7.533,6.334,3.172c-.01.118-.029.226-.029.354a2.95,2.95,0,1,0,.9-2.121l-6.393-3.192a1.9,1.9,0,0,0-2.652,1.08l-2.72,8.161a21.7,21.7,0,0,0-13.268,4.282,4.911,4.911,0,1,0-5.176,8.141,10.138,10.138,0,0,0-.157,1.817c0,7.866,8.358,14.24,18.66,14.24s18.66-6.374,18.66-14.24a10.163,10.163,0,0,0-.157-1.817,4.911,4.911,0,0,0,3.1-4.567m-31.427,3.929a2.946,2.946,0,1,1,2.946,2.946,2.942,2.942,0,0,1-2.946-2.946m17.511,8.4c-.088.137-2.318,3.388-7.69,3.388s-7.6-3.251-7.689-3.388a.968.968,0,0,1,.265-1.355.99.99,0,0,1,1.365.265c.069.108,1.787,2.514,6.059,2.514s5.991-2.416,6.06-2.514a.987.987,0,0,1,1.365-.255.975.975,0,0,1,.265,1.345m-.815-5.451a2.946,2.946,0,1,1,2.946-2.946,2.942,2.942,0,0,1-2.946,2.946" transform="translate(-167.389 -266.416)" fill="#fff"/>
      <path id="Path_157" data-name="Path 157" d="M1110.679,213.6a2.834,2.834,0,0,0-4.281-2.984,13.882,13.882,0,0,0-6.928-3.914l2.514-5.683,3.946,1.746a2.028,2.028,0,1,0,.407-.927l-4.406-1.949a.506.506,0,0,0-.668.258l-2.806,6.341a13.927,13.927,0,0,0-8.025.77,2.834,2.834,0,1,0-4.007,3.891,5.611,5.611,0,0,0-.242.825c-.9,4.27,3.347,8.776,9.478,10.063s11.829-1.13,12.726-5.4a5.576,5.576,0,0,0,.11-.848,2.836,2.836,0,0,0,2.184-2.19m-19.445-2.014a2.026,2.026,0,1,1,1.567,2.4,2.029,2.029,0,0,1-1.567-2.4m9.954,7.56c-1.637,1.067-4.251.627-5.014.467s-3.333-.81-4.4-2.445a.525.525,0,1,1,.879-.574c.674,1.032,2.434,1.718,3.738,1.991s3.192.354,4.225-.319a.525.525,0,1,1,.573.88m.335-3.329a2.026,2.026,0,1,1,2.4-1.566,2.028,2.028,0,0,1-2.4,1.566" transform="translate(-772.589 -142.269)" fill="#fff"/>
    </g>
  </g>
</svg>
